G04 #@! TF.FileFunction,Soldermask,Top*
%FSLAX46Y46*%
G04 Gerber Fmt 4.6, Leading zero omitted, Abs format (unit mm)*
G04 Created by KiCad (PCBNEW (2016-03-06 BZR 6610)-product) date 2016 August 04, Thursday 19:48:28*
%MOMM*%
G01*
G04 APERTURE LIST*
%ADD10C,0.100000*%
%ADD11R,2.300000X2.300000*%
%ADD12C,2.300000*%
%ADD13R,1.200000X1.150000*%
%ADD14R,1.150000X1.200000*%
%ADD15R,1.000000X2.400000*%
%ADD16R,1.950000X1.000000*%
%ADD17R,2.400000X1.000000*%
%ADD18R,1.000000X1.950000*%
%ADD19R,1.075000X0.650000*%
%ADD20R,0.650000X0.950000*%
%ADD21R,2.432000X2.127200*%
%ADD22O,2.432000X2.127200*%
%ADD23R,1.050000X1.460000*%
%ADD24R,1.200100X1.200100*%
%ADD25R,1.300000X0.900000*%
%ADD26R,0.900000X1.300000*%
%ADD27R,1.670000X1.160000*%
%ADD28R,0.800000X2.400000*%
%ADD29R,2.400000X0.800000*%
%ADD30R,1.289000X2.080000*%
%ADD31C,2.000000*%
%ADD32C,1.400000*%
%ADD33R,3.900000X1.200000*%
%ADD34C,4.100000*%
%ADD35C,1.900000*%
%ADD36R,1.200000X3.900000*%
%ADD37C,3.600000*%
%ADD38R,2.127200X2.432000*%
%ADD39O,2.127200X2.432000*%
%ADD40R,0.900000X0.750000*%
%ADD41R,0.830000X0.680000*%
%ADD42R,1.650000X1.400000*%
%ADD43R,1.441400X4.387800*%
%ADD44R,11.144200X8.705800*%
%ADD45R,1.460000X1.050000*%
%ADD46R,0.999440X1.400760*%
%ADD47R,1.400760X0.999440*%
G04 APERTURE END LIST*
D10*
D11*
X130315000Y-84125000D03*
D12*
X130315000Y-81625000D03*
X127815000Y-84125000D03*
X127815000Y-81625000D03*
D13*
X170205000Y-120320000D03*
X171705000Y-120320000D03*
X168530000Y-120320000D03*
X167030000Y-120320000D03*
D14*
X139840000Y-120205000D03*
X139840000Y-121705000D03*
D13*
X142265000Y-103175000D03*
X143765000Y-103175000D03*
X142265000Y-105080000D03*
X143765000Y-105080000D03*
X170205000Y-115240000D03*
X171705000Y-115240000D03*
X168530000Y-115240000D03*
X167030000Y-115240000D03*
X126620000Y-101016000D03*
X125120000Y-101016000D03*
X136145000Y-102540000D03*
X134645000Y-102540000D03*
X137820000Y-102540000D03*
X139320000Y-102540000D03*
D15*
X143015000Y-116765000D03*
X144285000Y-116765000D03*
X145555000Y-116765000D03*
X146825000Y-116765000D03*
X148095000Y-116765000D03*
X149365000Y-116765000D03*
X150635000Y-116765000D03*
X151905000Y-116765000D03*
X153175000Y-116765000D03*
X153175000Y-107365000D03*
X151905000Y-107365000D03*
X150635000Y-107365000D03*
X149365000Y-107365000D03*
X148095000Y-107365000D03*
X146825000Y-107365000D03*
X145555000Y-107365000D03*
X144285000Y-107365000D03*
X143015000Y-107365000D03*
D16*
X142220000Y-119050000D03*
X142220000Y-120320000D03*
X142220000Y-121590000D03*
X142220000Y-122860000D03*
X147620000Y-122860000D03*
X147620000Y-121590000D03*
X147620000Y-120320000D03*
X147620000Y-119050000D03*
D17*
X130060000Y-104445000D03*
X130060000Y-105715000D03*
X130060000Y-106985000D03*
X130060000Y-108255000D03*
X130060000Y-109525000D03*
X130060000Y-110795000D03*
X130060000Y-112065000D03*
X130060000Y-113335000D03*
X130060000Y-114605000D03*
X139460000Y-114605000D03*
X139460000Y-113335000D03*
X139460000Y-112065000D03*
X139460000Y-110795000D03*
X139460000Y-109525000D03*
X139460000Y-108255000D03*
X139460000Y-106985000D03*
X139460000Y-105715000D03*
X139460000Y-104445000D03*
D18*
X127140000Y-103015000D03*
X125870000Y-103015000D03*
X124600000Y-103015000D03*
X123330000Y-103015000D03*
X123330000Y-108415000D03*
X124600000Y-108415000D03*
X125870000Y-108415000D03*
X127140000Y-108415000D03*
D19*
X170947500Y-109930000D03*
X170947500Y-110430000D03*
X170947500Y-110930000D03*
X170947500Y-111430000D03*
X170947500Y-111930000D03*
X170947500Y-112430000D03*
X170947500Y-112930000D03*
X168422500Y-112930000D03*
X168422500Y-112430000D03*
X168422500Y-111930000D03*
X168422500Y-111430000D03*
X168422500Y-110930000D03*
X168422500Y-110430000D03*
X168422500Y-109930000D03*
D20*
X170185000Y-113480000D03*
X169685000Y-113480000D03*
X169185000Y-113480000D03*
X170185000Y-109380000D03*
X169685000Y-109380000D03*
X169185000Y-109380000D03*
D21*
X148800000Y-88690000D03*
D22*
X148800000Y-91230000D03*
X148800000Y-93770000D03*
X148800000Y-96310000D03*
D21*
X126200000Y-87610000D03*
D22*
X126200000Y-90150000D03*
X126200000Y-92690000D03*
D23*
X128730000Y-92210000D03*
X129680000Y-92210000D03*
X130630000Y-92210000D03*
X130630000Y-90010000D03*
X128730000Y-90010000D03*
X129680000Y-90010000D03*
D24*
X130680760Y-88250000D03*
X130680760Y-86350000D03*
X128681780Y-87300000D03*
D25*
X173495000Y-121070000D03*
X173495000Y-119570000D03*
X137935000Y-122975000D03*
X137935000Y-121475000D03*
X173495000Y-117895000D03*
X173495000Y-116395000D03*
X137935000Y-118300000D03*
X137935000Y-119800000D03*
X132220000Y-92495000D03*
X132220000Y-90995000D03*
X132220000Y-87820000D03*
X132220000Y-89320000D03*
D26*
X153060000Y-122225000D03*
X154560000Y-122225000D03*
X142265000Y-101270000D03*
X143765000Y-101270000D03*
D25*
X125235000Y-113855000D03*
X125235000Y-115355000D03*
X173495000Y-109410000D03*
X173495000Y-110910000D03*
X175400000Y-109410000D03*
X175400000Y-110910000D03*
X177305000Y-109410000D03*
X177305000Y-110910000D03*
X173495000Y-112585000D03*
X173495000Y-114085000D03*
X175400000Y-112585000D03*
X175400000Y-114085000D03*
X177305000Y-112585000D03*
X177305000Y-114085000D03*
D26*
X123215000Y-99365000D03*
X124715000Y-99365000D03*
X127890000Y-99365000D03*
X126390000Y-99365000D03*
X124715000Y-110795000D03*
X123215000Y-110795000D03*
X131470000Y-102540000D03*
X132970000Y-102540000D03*
D25*
X123330000Y-113855000D03*
X123330000Y-115355000D03*
X164859000Y-109132000D03*
X164859000Y-107632000D03*
X166637000Y-109132000D03*
X166637000Y-107632000D03*
D27*
X130300000Y-121590000D03*
X130300000Y-120320000D03*
X130300000Y-119050000D03*
X130300000Y-117780000D03*
X122710000Y-117780000D03*
X122710000Y-119050000D03*
X122710000Y-120320000D03*
X122710000Y-121590000D03*
D28*
X152470000Y-119685000D03*
X151270000Y-119685000D03*
X150070000Y-119685000D03*
D29*
X127140000Y-113265000D03*
X127140000Y-112065000D03*
X127140000Y-110865000D03*
D30*
X125870000Y-73030000D03*
X128410000Y-73030000D03*
X130950000Y-73030000D03*
X133490000Y-73030000D03*
X136030000Y-73030000D03*
X138570000Y-73030000D03*
X141110000Y-73030000D03*
X143650000Y-73030000D03*
X146190000Y-73030000D03*
X148730000Y-73030000D03*
X151270000Y-73030000D03*
X153810000Y-73030000D03*
X156350000Y-73030000D03*
X158890000Y-73030000D03*
X161430000Y-73030000D03*
X163970000Y-73030000D03*
X166510000Y-73030000D03*
X169050000Y-73030000D03*
X171590000Y-73030000D03*
X174130000Y-73030000D03*
X125870000Y-78470000D03*
X128410000Y-78470000D03*
X130950000Y-78470000D03*
X133490000Y-78470000D03*
X136030000Y-78470000D03*
X138570000Y-78470000D03*
X141110000Y-78470000D03*
X143650000Y-78470000D03*
X146190000Y-78470000D03*
X148730000Y-78470000D03*
X151270000Y-78470000D03*
X153810000Y-78470000D03*
X156350000Y-78470000D03*
X158890000Y-78470000D03*
X161430000Y-78470000D03*
X163970000Y-78470000D03*
X166510000Y-78470000D03*
X169050000Y-78470000D03*
X171590000Y-78470000D03*
X174130000Y-78470000D03*
D31*
X127140000Y-75750000D03*
X172860000Y-75750000D03*
D32*
X125870000Y-77020000D03*
X128410000Y-77020000D03*
X130950000Y-77020000D03*
X133490000Y-77020000D03*
X136030000Y-77020000D03*
X138570000Y-77020000D03*
X141110000Y-77020000D03*
X143650000Y-77020000D03*
X146190000Y-77020000D03*
X148730000Y-77020000D03*
X151270000Y-77020000D03*
X153810000Y-77020000D03*
X156350000Y-77020000D03*
X158890000Y-77020000D03*
X161430000Y-77020000D03*
X163970000Y-77020000D03*
X166510000Y-77020000D03*
X169050000Y-77020000D03*
X171590000Y-77020000D03*
X174130000Y-77020000D03*
X125870000Y-74480000D03*
X128410000Y-74480000D03*
X130950000Y-74480000D03*
X133490000Y-74480000D03*
X136030000Y-74480000D03*
X138570000Y-74480000D03*
X141110000Y-74480000D03*
X143650000Y-74480000D03*
X146190000Y-74480000D03*
X148730000Y-74480000D03*
X151270000Y-74480000D03*
X153810000Y-74480000D03*
X156350000Y-74480000D03*
X158890000Y-74480000D03*
X161430000Y-74480000D03*
X163970000Y-74480000D03*
X166510000Y-74480000D03*
X169050000Y-74480000D03*
X171590000Y-74480000D03*
X174130000Y-74480000D03*
D33*
X119750000Y-103250000D03*
D34*
X120300000Y-115745000D03*
D33*
X119750000Y-101865000D03*
X119750000Y-100480000D03*
X119750000Y-99095000D03*
X119750000Y-97710000D03*
X119750000Y-104635000D03*
X119750000Y-106020000D03*
X119750000Y-107405000D03*
X119750000Y-108790000D03*
D34*
X120300000Y-90755000D03*
D35*
X120300000Y-111200000D03*
X120300000Y-95300000D03*
D36*
X142500000Y-126000000D03*
D34*
X154995000Y-125450000D03*
D36*
X141115000Y-126000000D03*
X139730000Y-126000000D03*
X138345000Y-126000000D03*
X136960000Y-126000000D03*
X143885000Y-126000000D03*
X145270000Y-126000000D03*
X146655000Y-126000000D03*
X148040000Y-126000000D03*
D34*
X130005000Y-125450000D03*
D35*
X150450000Y-125450000D03*
X134550000Y-125450000D03*
D37*
X149250000Y-82250000D03*
X179750000Y-82250000D03*
X149250000Y-102750000D03*
X179750000Y-102750000D03*
D14*
X153175000Y-84875000D03*
X153175000Y-83375000D03*
D25*
X160795000Y-82740000D03*
X160795000Y-84240000D03*
D26*
X155600000Y-80950000D03*
X157100000Y-80950000D03*
X160275000Y-80950000D03*
X158775000Y-80950000D03*
D18*
X155080000Y-88730000D03*
X156350000Y-88730000D03*
X157620000Y-88730000D03*
X158890000Y-88730000D03*
X158890000Y-83330000D03*
X157620000Y-83330000D03*
X156350000Y-83330000D03*
X155080000Y-83330000D03*
D38*
X165875000Y-126035000D03*
D39*
X168415000Y-126035000D03*
X170955000Y-126035000D03*
X173495000Y-126035000D03*
D40*
X168660000Y-118755000D03*
X168660000Y-118105000D03*
X168660000Y-117455000D03*
X168660000Y-116805000D03*
X170710000Y-116805000D03*
X170710000Y-117455000D03*
X170710000Y-118105000D03*
X170710000Y-118755000D03*
D41*
X160795000Y-85775000D03*
X160795000Y-86285000D03*
D42*
X134760000Y-93920000D03*
X134760000Y-95920000D03*
X143650000Y-95920000D03*
X143650000Y-93920000D03*
D43*
X141745000Y-95605800D03*
X139205000Y-95605800D03*
X136665000Y-95605800D03*
D44*
X139205000Y-85052100D03*
D45*
X132050000Y-97775000D03*
X132050000Y-96825000D03*
X132050000Y-95875000D03*
X129850000Y-95875000D03*
X129850000Y-97775000D03*
X129850000Y-96825000D03*
D24*
X128090000Y-95824240D03*
X126190000Y-95824240D03*
X127140000Y-97823220D03*
D26*
X132970000Y-94285000D03*
X131470000Y-94285000D03*
X128295000Y-94285000D03*
X129795000Y-94285000D03*
D46*
X124584760Y-123815040D03*
X125885240Y-123815040D03*
X125235000Y-125714960D03*
D47*
X149685040Y-123510240D03*
X149685040Y-122209760D03*
X151584960Y-122860000D03*
M02*
