M48
;DRILL file {KiCad (2016-03-06 BZR 6610)-product} date 2016 August 04, Thursday 19:48:31
;FORMAT={-:-/ absolute / inch / decimal}
FMAT,2
INCH,TZ
T1C0.012
T2C0.040
T3C0.047
T4C0.106
T5C0.120
T6C0.039
T7C0.059
T8C0.063
T9C0.126
%
G90
G05
M72
T1
X4.7855Y-4.657
X4.8055Y-3.902
X4.8255Y-4.067
X4.8805Y-4.362
X4.9055Y-2.842
X4.9305Y-4.317
X4.9305Y-4.917
X4.9655Y-4.787
X4.9855Y-4.002
X4.9905Y-4.507
X5.0055Y-3.912
X5.0205Y-4.637
X5.0655Y-4.437
X5.0655Y-4.512
X5.0755Y-3.812
X5.0855Y-3.087
X5.1205Y-3.087
X5.1405Y-3.712
X5.2005Y-2.902
X5.2055Y-3.547
X5.3055Y-3.812
X5.3555Y-3.137
X5.3655Y-4.737
X5.3905Y-4.037
X5.4155Y-4.212
X5.4305Y-4.687
X5.4805Y-3.647
X5.5455Y-4.712
X5.5505Y-4.212
X5.5705Y-4.062
X5.5705Y-4.137
X5.5955Y-2.902
X5.6105Y-4.872
X5.6805Y-4.737
X5.7055Y-2.937
X5.7255Y-4.787
X5.7305Y-4.167
X5.7805Y-4.167
X5.8305Y-4.167
X5.8555Y-3.137
X5.8655Y-3.332
X5.8955Y-2.902
X5.9555Y-3.137
X5.9555Y-4.652
X5.9655Y-3.857
X5.9655Y-3.947
X6.0005Y-4.837
X6.0055Y-3.857
X6.0055Y-3.947
X6.0155Y-2.972
X6.0305Y-3.242
X6.0305Y-3.372
X6.0305Y-4.537
X6.0605Y-4.812
X6.0855Y-3.537
X6.1105Y-2.972
X6.1555Y-3.137
X6.2755Y-3.537
X6.3305Y-3.417
X6.3505Y-3.182
X6.3905Y-2.902
X6.4155Y-2.882
X6.4905Y-4.202
X6.4905Y-4.267
X6.4905Y-4.497
X6.4955Y-2.877
X6.5205Y-2.857
X6.5255Y-3.177
X6.5355Y-4.712
X6.5355Y-4.762
X6.5405Y-4.447
X6.5605Y-4.202
X6.5605Y-4.267
X6.5905Y-2.877
X6.6005Y-4.447
X6.6005Y-4.497
X6.6355Y-4.767
X6.6655Y-4.427
X6.6655Y-4.537
X6.7005Y-4.767
X6.7555Y-4.387
X6.8305Y-4.612
X6.8555Y-3.137
X6.8655Y-4.492
X6.8705Y-4.427
T2
X4.9685Y-3.4492
X4.9685Y-3.5492
X4.9685Y-3.6492
X5.8583Y-3.4917
X5.8583Y-3.5917
X5.8583Y-3.6917
X5.8583Y-3.7917
X6.5305Y-4.962
X6.6305Y-4.962
X6.7305Y-4.962
X6.8305Y-4.962
T3
X5.0321Y-3.2136
X5.0321Y-3.312
X5.1305Y-3.2136
X5.1305Y-3.312
T4
X4.7638Y-2.9823
X4.7638Y-4.9114
X7.0472Y-2.9823
X7.0472Y-4.9114
T5
X4.7362Y-3.573
X4.7362Y-4.5569
X5.1183Y-4.939
X6.1022Y-4.939
T6
X4.9555Y-2.9323
X4.9555Y-3.0323
X5.0555Y-2.9323
X5.0555Y-3.0323
X5.1555Y-2.9323
X5.1555Y-3.0323
X5.2555Y-2.9323
X5.2555Y-3.0323
X5.3555Y-2.9323
X5.3555Y-3.0323
X5.4555Y-2.9323
X5.4555Y-3.0323
X5.5555Y-2.9323
X5.5555Y-3.0323
X5.6555Y-2.9323
X5.6555Y-3.0323
X5.7555Y-2.9323
X5.7555Y-3.0323
X5.8555Y-2.9323
X5.8555Y-3.0323
X5.9555Y-2.9323
X5.9555Y-3.0323
X6.0555Y-2.9323
X6.0555Y-3.0323
X6.1555Y-2.9323
X6.1555Y-3.0323
X6.2555Y-2.9323
X6.2555Y-3.0323
X6.3555Y-2.9323
X6.3555Y-3.0323
X6.4555Y-2.9323
X6.4555Y-3.0323
X6.5555Y-2.9323
X6.5555Y-3.0323
X6.6555Y-2.9323
X6.6555Y-3.0323
X6.7555Y-2.9323
X6.7555Y-3.0323
X6.8555Y-2.9323
X6.8555Y-3.0323
T7
X4.7362Y-3.752
X4.7362Y-4.378
X5.2972Y-4.939
X5.9232Y-4.939
T8
X4.7494Y-3.2136
X4.7494Y-3.312
X5.0055Y-2.9823
X6.8055Y-2.9823
T9
X5.876Y-3.2382
X5.876Y-4.0453
X7.0768Y-3.2382
X7.0768Y-4.0453
T0
M30
