G04 #@! TF.FileFunction,Legend,Top*
%FSLAX46Y46*%
G04 Gerber Fmt 4.6, Leading zero omitted, Abs format (unit mm)*
G04 Created by KiCad (PCBNEW (2016-03-06 BZR 6610)-product) date 2016 August 04, Thursday 19:48:28*
%MOMM*%
G01*
G04 APERTURE LIST*
%ADD10C,0.100000*%
%ADD11C,0.150000*%
G04 APERTURE END LIST*
D10*
D11*
X157919381Y-123256905D02*
X156919381Y-123256905D01*
X156919381Y-123018810D01*
X156967000Y-122875952D01*
X157062238Y-122780714D01*
X157157476Y-122733095D01*
X157347952Y-122685476D01*
X157490810Y-122685476D01*
X157681286Y-122733095D01*
X157776524Y-122780714D01*
X157871762Y-122875952D01*
X157919381Y-123018810D01*
X157919381Y-123256905D01*
X157252714Y-121828333D02*
X157919381Y-121828333D01*
X157252714Y-122256905D02*
X157776524Y-122256905D01*
X157871762Y-122209286D01*
X157919381Y-122114048D01*
X157919381Y-121971190D01*
X157871762Y-121875952D01*
X157824143Y-121828333D01*
X157919381Y-120923571D02*
X157395571Y-120923571D01*
X157300333Y-120971190D01*
X157252714Y-121066428D01*
X157252714Y-121256905D01*
X157300333Y-121352143D01*
X157871762Y-120923571D02*
X157919381Y-121018809D01*
X157919381Y-121256905D01*
X157871762Y-121352143D01*
X157776524Y-121399762D01*
X157681286Y-121399762D01*
X157586048Y-121352143D01*
X157538429Y-121256905D01*
X157538429Y-121018809D01*
X157490810Y-120923571D01*
X157919381Y-120304524D02*
X157871762Y-120399762D01*
X157776524Y-120447381D01*
X156919381Y-120447381D01*
X157824143Y-118590237D02*
X157871762Y-118637856D01*
X157919381Y-118780713D01*
X157919381Y-118875951D01*
X157871762Y-119018809D01*
X157776524Y-119114047D01*
X157681286Y-119161666D01*
X157490810Y-119209285D01*
X157347952Y-119209285D01*
X157157476Y-119161666D01*
X157062238Y-119114047D01*
X156967000Y-119018809D01*
X156919381Y-118875951D01*
X156919381Y-118780713D01*
X156967000Y-118637856D01*
X157014619Y-118590237D01*
X157633667Y-118209285D02*
X157633667Y-117733094D01*
X157919381Y-118304523D02*
X156919381Y-117971190D01*
X157919381Y-117637856D01*
X157919381Y-117304523D02*
X156919381Y-117304523D01*
X157919381Y-116733094D01*
X156919381Y-116733094D01*
X157871762Y-116209285D02*
X157919381Y-116209285D01*
X158014619Y-116256904D01*
X158062238Y-116304523D01*
X157919381Y-115018809D02*
X156919381Y-115018809D01*
X157919381Y-114542619D02*
X156919381Y-114542619D01*
X157633667Y-114209285D01*
X156919381Y-113875952D01*
X157919381Y-113875952D01*
X156919381Y-113399762D02*
X157728905Y-113399762D01*
X157824143Y-113352143D01*
X157871762Y-113304524D01*
X157919381Y-113209286D01*
X157919381Y-113018809D01*
X157871762Y-112923571D01*
X157824143Y-112875952D01*
X157728905Y-112828333D01*
X156919381Y-112828333D01*
X157871762Y-112304524D02*
X157919381Y-112304524D01*
X158014619Y-112352143D01*
X158062238Y-112399762D01*
X157395571Y-111114048D02*
X157395571Y-110780714D01*
X157919381Y-110637857D02*
X157919381Y-111114048D01*
X156919381Y-111114048D01*
X156919381Y-110637857D01*
X157919381Y-110209286D02*
X156919381Y-110209286D01*
X157919381Y-109637857D01*
X156919381Y-109637857D01*
X156919381Y-109304524D02*
X157919381Y-108971191D01*
X156919381Y-108637857D01*
X157871762Y-108256905D02*
X157919381Y-108256905D01*
X158014619Y-108304524D01*
X158062238Y-108352143D01*
X158517000Y-122733095D02*
X158469381Y-122828333D01*
X158469381Y-122971190D01*
X158517000Y-123114048D01*
X158612238Y-123209286D01*
X158707476Y-123256905D01*
X158897952Y-123304524D01*
X159040810Y-123304524D01*
X159231286Y-123256905D01*
X159326524Y-123209286D01*
X159421762Y-123114048D01*
X159469381Y-122971190D01*
X159469381Y-122875952D01*
X159421762Y-122733095D01*
X159374143Y-122685476D01*
X159040810Y-122685476D01*
X159040810Y-122875952D01*
X159469381Y-122256905D02*
X158469381Y-122256905D01*
X158469381Y-121875952D01*
X158517000Y-121780714D01*
X158564619Y-121733095D01*
X158659857Y-121685476D01*
X158802714Y-121685476D01*
X158897952Y-121733095D01*
X158945571Y-121780714D01*
X158993190Y-121875952D01*
X158993190Y-122256905D01*
X159421762Y-121304524D02*
X159469381Y-121161667D01*
X159469381Y-120923571D01*
X159421762Y-120828333D01*
X159374143Y-120780714D01*
X159278905Y-120733095D01*
X159183667Y-120733095D01*
X159088429Y-120780714D01*
X159040810Y-120828333D01*
X158993190Y-120923571D01*
X158945571Y-121114048D01*
X158897952Y-121209286D01*
X158850333Y-121256905D01*
X158755095Y-121304524D01*
X158659857Y-121304524D01*
X158564619Y-121256905D01*
X158517000Y-121209286D01*
X158469381Y-121114048D01*
X158469381Y-120875952D01*
X158517000Y-120733095D01*
X159469381Y-119542619D02*
X158469381Y-119542619D01*
X158945571Y-119542619D02*
X158945571Y-118971190D01*
X159469381Y-118971190D02*
X158469381Y-118971190D01*
X159469381Y-118066428D02*
X158945571Y-118066428D01*
X158850333Y-118114047D01*
X158802714Y-118209285D01*
X158802714Y-118399762D01*
X158850333Y-118495000D01*
X159421762Y-118066428D02*
X159469381Y-118161666D01*
X159469381Y-118399762D01*
X159421762Y-118495000D01*
X159326524Y-118542619D01*
X159231286Y-118542619D01*
X159136048Y-118495000D01*
X159088429Y-118399762D01*
X159088429Y-118161666D01*
X159040810Y-118066428D01*
X158802714Y-117733095D02*
X158802714Y-117352143D01*
X158469381Y-117590238D02*
X159326524Y-117590238D01*
X159421762Y-117542619D01*
X159469381Y-117447381D01*
X159469381Y-117352143D01*
X159421762Y-116971190D02*
X159469381Y-116971190D01*
X159564619Y-117018809D01*
X159612238Y-117066428D01*
X158850333Y-117018809D02*
X158897952Y-116971190D01*
X158945571Y-117018809D01*
X158897952Y-117066428D01*
X158850333Y-117018809D01*
X158945571Y-117018809D01*
X159469381Y-115209285D02*
X158993190Y-115542619D01*
X159469381Y-115780714D02*
X158469381Y-115780714D01*
X158469381Y-115399761D01*
X158517000Y-115304523D01*
X158564619Y-115256904D01*
X158659857Y-115209285D01*
X158802714Y-115209285D01*
X158897952Y-115256904D01*
X158945571Y-115304523D01*
X158993190Y-115399761D01*
X158993190Y-115780714D01*
X159421762Y-114399761D02*
X159469381Y-114494999D01*
X159469381Y-114685476D01*
X159421762Y-114780714D01*
X159326524Y-114828333D01*
X158945571Y-114828333D01*
X158850333Y-114780714D01*
X158802714Y-114685476D01*
X158802714Y-114494999D01*
X158850333Y-114399761D01*
X158945571Y-114352142D01*
X159040810Y-114352142D01*
X159136048Y-114828333D01*
X158802714Y-114018809D02*
X159469381Y-113780714D01*
X158802714Y-113542618D01*
X159374143Y-113161666D02*
X159421762Y-113114047D01*
X159469381Y-113161666D01*
X159421762Y-113209285D01*
X159374143Y-113161666D01*
X159469381Y-113161666D01*
X159469381Y-111399761D02*
X159469381Y-111971190D01*
X159469381Y-111685476D02*
X158469381Y-111685476D01*
X158612238Y-111780714D01*
X158707476Y-111875952D01*
X158755095Y-111971190D01*
X159374143Y-110971190D02*
X159421762Y-110923571D01*
X159469381Y-110971190D01*
X159421762Y-111018809D01*
X159374143Y-110971190D01*
X159469381Y-110971190D01*
X158469381Y-110304524D02*
X158469381Y-110209285D01*
X158517000Y-110114047D01*
X158564619Y-110066428D01*
X158659857Y-110018809D01*
X158850333Y-109971190D01*
X159088429Y-109971190D01*
X159278905Y-110018809D01*
X159374143Y-110066428D01*
X159421762Y-110114047D01*
X159469381Y-110209285D01*
X159469381Y-110304524D01*
X159421762Y-110399762D01*
X159374143Y-110447381D01*
X159278905Y-110495000D01*
X159088429Y-110542619D01*
X158850333Y-110542619D01*
X158659857Y-110495000D01*
X158564619Y-110447381D01*
X158517000Y-110399762D01*
X158469381Y-110304524D01*
X159421762Y-109495000D02*
X159469381Y-109495000D01*
X159564619Y-109542619D01*
X159612238Y-109590238D01*
X158850333Y-109542619D02*
X158897952Y-109495000D01*
X158945571Y-109542619D01*
X158897952Y-109590238D01*
X158850333Y-109542619D01*
X158945571Y-109542619D01*
X160019381Y-123399762D02*
X160019381Y-122828333D01*
X161019381Y-123114048D02*
X160019381Y-123114048D01*
X161019381Y-122352143D02*
X160971762Y-122447381D01*
X160924143Y-122495000D01*
X160828905Y-122542619D01*
X160543190Y-122542619D01*
X160447952Y-122495000D01*
X160400333Y-122447381D01*
X160352714Y-122352143D01*
X160352714Y-122209285D01*
X160400333Y-122114047D01*
X160447952Y-122066428D01*
X160543190Y-122018809D01*
X160828905Y-122018809D01*
X160924143Y-122066428D01*
X160971762Y-122114047D01*
X161019381Y-122209285D01*
X161019381Y-122352143D01*
X161019381Y-121590238D02*
X160019381Y-121590238D01*
X160400333Y-121590238D02*
X160352714Y-121495000D01*
X160352714Y-121304523D01*
X160400333Y-121209285D01*
X160447952Y-121161666D01*
X160543190Y-121114047D01*
X160828905Y-121114047D01*
X160924143Y-121161666D01*
X160971762Y-121209285D01*
X161019381Y-121304523D01*
X161019381Y-121495000D01*
X160971762Y-121590238D01*
X161019381Y-120685476D02*
X160352714Y-120685476D01*
X160019381Y-120685476D02*
X160067000Y-120733095D01*
X160114619Y-120685476D01*
X160067000Y-120637857D01*
X160019381Y-120685476D01*
X160114619Y-120685476D01*
X161019381Y-119780714D02*
X160495571Y-119780714D01*
X160400333Y-119828333D01*
X160352714Y-119923571D01*
X160352714Y-120114048D01*
X160400333Y-120209286D01*
X160971762Y-119780714D02*
X161019381Y-119875952D01*
X161019381Y-120114048D01*
X160971762Y-120209286D01*
X160876524Y-120256905D01*
X160781286Y-120256905D01*
X160686048Y-120209286D01*
X160638429Y-120114048D01*
X160638429Y-119875952D01*
X160590810Y-119780714D01*
X160971762Y-119352143D02*
X161019381Y-119256905D01*
X161019381Y-119066429D01*
X160971762Y-118971190D01*
X160876524Y-118923571D01*
X160828905Y-118923571D01*
X160733667Y-118971190D01*
X160686048Y-119066429D01*
X160686048Y-119209286D01*
X160638429Y-119304524D01*
X160543190Y-119352143D01*
X160495571Y-119352143D01*
X160400333Y-119304524D01*
X160352714Y-119209286D01*
X160352714Y-119066429D01*
X160400333Y-118971190D01*
X161019381Y-117733095D02*
X160019381Y-117733095D01*
X160733667Y-117399761D01*
X160019381Y-117066428D01*
X161019381Y-117066428D01*
X160352714Y-116161666D02*
X161019381Y-116161666D01*
X160352714Y-116590238D02*
X160876524Y-116590238D01*
X160971762Y-116542619D01*
X161019381Y-116447381D01*
X161019381Y-116304523D01*
X160971762Y-116209285D01*
X160924143Y-116161666D01*
X160019381Y-116542619D02*
X160067000Y-116495000D01*
X160114619Y-116542619D01*
X160067000Y-116590238D01*
X160019381Y-116542619D01*
X160114619Y-116542619D01*
X160019381Y-116161666D02*
X160067000Y-116114047D01*
X160114619Y-116161666D01*
X160067000Y-116209285D01*
X160019381Y-116161666D01*
X160114619Y-116161666D01*
X161019381Y-115542619D02*
X160971762Y-115637857D01*
X160876524Y-115685476D01*
X160019381Y-115685476D01*
X161019381Y-115018809D02*
X160971762Y-115114047D01*
X160876524Y-115161666D01*
X160019381Y-115161666D01*
X160971762Y-114256903D02*
X161019381Y-114352141D01*
X161019381Y-114542618D01*
X160971762Y-114637856D01*
X160876524Y-114685475D01*
X160495571Y-114685475D01*
X160400333Y-114637856D01*
X160352714Y-114542618D01*
X160352714Y-114352141D01*
X160400333Y-114256903D01*
X160495571Y-114209284D01*
X160590810Y-114209284D01*
X160686048Y-114685475D01*
X161019381Y-113780713D02*
X160352714Y-113780713D01*
X160543190Y-113780713D02*
X160447952Y-113733094D01*
X160400333Y-113685475D01*
X160352714Y-113590237D01*
X160352714Y-113494998D01*
X160971762Y-113114046D02*
X161019381Y-113114046D01*
X161114619Y-113161665D01*
X161162238Y-113209284D01*
X160400333Y-113161665D02*
X160447952Y-113114046D01*
X160495571Y-113161665D01*
X160447952Y-113209284D01*
X160400333Y-113161665D01*
X160495571Y-113161665D01*
X160019381Y-111733094D02*
X160019381Y-111637855D01*
X160067000Y-111542617D01*
X160114619Y-111494998D01*
X160209857Y-111447379D01*
X160400333Y-111399760D01*
X160638429Y-111399760D01*
X160828905Y-111447379D01*
X160924143Y-111494998D01*
X160971762Y-111542617D01*
X161019381Y-111637855D01*
X161019381Y-111733094D01*
X160971762Y-111828332D01*
X160924143Y-111875951D01*
X160828905Y-111923570D01*
X160638429Y-111971189D01*
X160400333Y-111971189D01*
X160209857Y-111923570D01*
X160114619Y-111875951D01*
X160067000Y-111828332D01*
X160019381Y-111733094D01*
X160019381Y-111066427D02*
X160019381Y-110399760D01*
X161019381Y-110828332D01*
X159971762Y-109304522D02*
X161257476Y-110161665D01*
X160114619Y-109018808D02*
X160067000Y-108971189D01*
X160019381Y-108875951D01*
X160019381Y-108637855D01*
X160067000Y-108542617D01*
X160114619Y-108494998D01*
X160209857Y-108447379D01*
X160305095Y-108447379D01*
X160447952Y-108494998D01*
X161019381Y-109066427D01*
X161019381Y-108447379D01*
X160019381Y-107828332D02*
X160019381Y-107733093D01*
X160067000Y-107637855D01*
X160114619Y-107590236D01*
X160209857Y-107542617D01*
X160400333Y-107494998D01*
X160638429Y-107494998D01*
X160828905Y-107542617D01*
X160924143Y-107590236D01*
X160971762Y-107637855D01*
X161019381Y-107733093D01*
X161019381Y-107828332D01*
X160971762Y-107923570D01*
X160924143Y-107971189D01*
X160828905Y-108018808D01*
X160638429Y-108066427D01*
X160400333Y-108066427D01*
X160209857Y-108018808D01*
X160114619Y-107971189D01*
X160067000Y-107923570D01*
X160019381Y-107828332D01*
X161019381Y-106542617D02*
X161019381Y-107114046D01*
X161019381Y-106828332D02*
X160019381Y-106828332D01*
X160162238Y-106923570D01*
X160257476Y-107018808D01*
X160305095Y-107114046D01*
X160019381Y-105685474D02*
X160019381Y-105875951D01*
X160067000Y-105971189D01*
X160114619Y-106018808D01*
X160257476Y-106114046D01*
X160447952Y-106161665D01*
X160828905Y-106161665D01*
X160924143Y-106114046D01*
X160971762Y-106066427D01*
X161019381Y-105971189D01*
X161019381Y-105780712D01*
X160971762Y-105685474D01*
X160924143Y-105637855D01*
X160828905Y-105590236D01*
X160590810Y-105590236D01*
X160495571Y-105637855D01*
X160447952Y-105685474D01*
X160400333Y-105780712D01*
X160400333Y-105971189D01*
X160447952Y-106066427D01*
X160495571Y-106114046D01*
X160590810Y-106161665D01*
X131569095Y-122042381D02*
X131569095Y-121042381D01*
X131950048Y-121042381D01*
X132045286Y-121090000D01*
X132092905Y-121137619D01*
X132140524Y-121232857D01*
X132140524Y-121375714D01*
X132092905Y-121470952D01*
X132045286Y-121518571D01*
X131950048Y-121566190D01*
X131569095Y-121566190D01*
X132473857Y-121042381D02*
X132711952Y-122042381D01*
X132902429Y-121328095D01*
X133092905Y-122042381D01*
X133331000Y-121042381D01*
X134283381Y-122042381D02*
X133950047Y-121566190D01*
X133711952Y-122042381D02*
X133711952Y-121042381D01*
X134092905Y-121042381D01*
X134188143Y-121090000D01*
X134235762Y-121137619D01*
X134283381Y-121232857D01*
X134283381Y-121375714D01*
X134235762Y-121470952D01*
X134188143Y-121518571D01*
X134092905Y-121566190D01*
X133711952Y-121566190D01*
X135235762Y-122042381D02*
X134664333Y-122042381D01*
X134950047Y-122042381D02*
X134950047Y-121042381D01*
X134854809Y-121185238D01*
X134759571Y-121280476D01*
X134664333Y-121328095D01*
X131426238Y-119772381D02*
X131997667Y-119772381D01*
X131711952Y-120772381D02*
X131711952Y-119772381D01*
X132331000Y-120248571D02*
X132664334Y-120248571D01*
X132807191Y-120772381D02*
X132331000Y-120772381D01*
X132331000Y-119772381D01*
X132807191Y-119772381D01*
X133807191Y-120772381D02*
X133473857Y-120296190D01*
X133235762Y-120772381D02*
X133235762Y-119772381D01*
X133616715Y-119772381D01*
X133711953Y-119820000D01*
X133759572Y-119867619D01*
X133807191Y-119962857D01*
X133807191Y-120105714D01*
X133759572Y-120200952D01*
X133711953Y-120248571D01*
X133616715Y-120296190D01*
X133235762Y-120296190D01*
X134235762Y-120772381D02*
X134235762Y-119772381D01*
X134569096Y-120486667D01*
X134902429Y-119772381D01*
X134902429Y-120772381D01*
X135902429Y-120772381D02*
X135331000Y-120772381D01*
X135616714Y-120772381D02*
X135616714Y-119772381D01*
X135521476Y-119915238D01*
X135426238Y-120010476D01*
X135331000Y-120058095D01*
X131426238Y-118502381D02*
X131997667Y-118502381D01*
X131711952Y-119502381D02*
X131711952Y-118502381D01*
X132331000Y-118978571D02*
X132664334Y-118978571D01*
X132807191Y-119502381D02*
X132331000Y-119502381D01*
X132331000Y-118502381D01*
X132807191Y-118502381D01*
X133807191Y-119502381D02*
X133473857Y-119026190D01*
X133235762Y-119502381D02*
X133235762Y-118502381D01*
X133616715Y-118502381D01*
X133711953Y-118550000D01*
X133759572Y-118597619D01*
X133807191Y-118692857D01*
X133807191Y-118835714D01*
X133759572Y-118930952D01*
X133711953Y-118978571D01*
X133616715Y-119026190D01*
X133235762Y-119026190D01*
X134235762Y-119502381D02*
X134235762Y-118502381D01*
X134569096Y-119216667D01*
X134902429Y-118502381D01*
X134902429Y-119502381D01*
X135331000Y-118597619D02*
X135378619Y-118550000D01*
X135473857Y-118502381D01*
X135711953Y-118502381D01*
X135807191Y-118550000D01*
X135854810Y-118597619D01*
X135902429Y-118692857D01*
X135902429Y-118788095D01*
X135854810Y-118930952D01*
X135283381Y-119502381D01*
X135902429Y-119502381D01*
X131569095Y-118232381D02*
X131569095Y-117232381D01*
X131950048Y-117232381D01*
X132045286Y-117280000D01*
X132092905Y-117327619D01*
X132140524Y-117422857D01*
X132140524Y-117565714D01*
X132092905Y-117660952D01*
X132045286Y-117708571D01*
X131950048Y-117756190D01*
X131569095Y-117756190D01*
X132473857Y-117232381D02*
X132711952Y-118232381D01*
X132902429Y-117518095D01*
X133092905Y-118232381D01*
X133331000Y-117232381D01*
X134283381Y-118232381D02*
X133950047Y-117756190D01*
X133711952Y-118232381D02*
X133711952Y-117232381D01*
X134092905Y-117232381D01*
X134188143Y-117280000D01*
X134235762Y-117327619D01*
X134283381Y-117422857D01*
X134283381Y-117565714D01*
X134235762Y-117660952D01*
X134188143Y-117708571D01*
X134092905Y-117756190D01*
X133711952Y-117756190D01*
X134664333Y-117327619D02*
X134711952Y-117280000D01*
X134807190Y-117232381D01*
X135045286Y-117232381D01*
X135140524Y-117280000D01*
X135188143Y-117327619D01*
X135235762Y-117422857D01*
X135235762Y-117518095D01*
X135188143Y-117660952D01*
X134616714Y-118232381D01*
X135235762Y-118232381D01*
X151269905Y-95944000D02*
X151174667Y-95896381D01*
X151031810Y-95896381D01*
X150888952Y-95944000D01*
X150793714Y-96039238D01*
X150746095Y-96134476D01*
X150698476Y-96324952D01*
X150698476Y-96467810D01*
X150746095Y-96658286D01*
X150793714Y-96753524D01*
X150888952Y-96848762D01*
X151031810Y-96896381D01*
X151127048Y-96896381D01*
X151269905Y-96848762D01*
X151317524Y-96801143D01*
X151317524Y-96467810D01*
X151127048Y-96467810D01*
X151746095Y-96896381D02*
X151746095Y-95896381D01*
X152317524Y-96896381D01*
X152317524Y-95896381D01*
X152793714Y-96896381D02*
X152793714Y-95896381D01*
X153031809Y-95896381D01*
X153174667Y-95944000D01*
X153269905Y-96039238D01*
X153317524Y-96134476D01*
X153365143Y-96324952D01*
X153365143Y-96467810D01*
X153317524Y-96658286D01*
X153269905Y-96753524D01*
X153174667Y-96848762D01*
X153031809Y-96896381D01*
X152793714Y-96896381D01*
X151317524Y-94356381D02*
X150984190Y-93880190D01*
X150746095Y-94356381D02*
X150746095Y-93356381D01*
X151127048Y-93356381D01*
X151222286Y-93404000D01*
X151269905Y-93451619D01*
X151317524Y-93546857D01*
X151317524Y-93689714D01*
X151269905Y-93784952D01*
X151222286Y-93832571D01*
X151127048Y-93880190D01*
X150746095Y-93880190D01*
X151650857Y-93356381D02*
X152317524Y-94356381D01*
X152317524Y-93356381D02*
X151650857Y-94356381D01*
X150603238Y-90689381D02*
X151174667Y-90689381D01*
X150888952Y-91689381D02*
X150888952Y-90689381D01*
X151412762Y-90689381D02*
X152079429Y-91689381D01*
X152079429Y-90689381D02*
X151412762Y-91689381D01*
X150650857Y-88276381D02*
X151269905Y-88276381D01*
X150936571Y-88657333D01*
X151079429Y-88657333D01*
X151174667Y-88704952D01*
X151222286Y-88752571D01*
X151269905Y-88847810D01*
X151269905Y-89085905D01*
X151222286Y-89181143D01*
X151174667Y-89228762D01*
X151079429Y-89276381D01*
X150793714Y-89276381D01*
X150698476Y-89228762D01*
X150650857Y-89181143D01*
X151555619Y-88276381D02*
X151888952Y-89276381D01*
X152222286Y-88276381D01*
X152460381Y-88276381D02*
X153079429Y-88276381D01*
X152746095Y-88657333D01*
X152888953Y-88657333D01*
X152984191Y-88704952D01*
X153031810Y-88752571D01*
X153079429Y-88847810D01*
X153079429Y-89085905D01*
X153031810Y-89181143D01*
X152984191Y-89228762D01*
X152888953Y-89276381D01*
X152603238Y-89276381D01*
X152508000Y-89228762D01*
X152460381Y-89181143D01*
X172995000Y-123368095D02*
X172947381Y-123463333D01*
X172947381Y-123606190D01*
X172995000Y-123749048D01*
X173090238Y-123844286D01*
X173185476Y-123891905D01*
X173375952Y-123939524D01*
X173518810Y-123939524D01*
X173709286Y-123891905D01*
X173804524Y-123844286D01*
X173899762Y-123749048D01*
X173947381Y-123606190D01*
X173947381Y-123510952D01*
X173899762Y-123368095D01*
X173852143Y-123320476D01*
X173518810Y-123320476D01*
X173518810Y-123510952D01*
X173947381Y-122891905D02*
X172947381Y-122891905D01*
X173947381Y-122320476D01*
X172947381Y-122320476D01*
X173947381Y-121844286D02*
X172947381Y-121844286D01*
X172947381Y-121606191D01*
X172995000Y-121463333D01*
X173090238Y-121368095D01*
X173185476Y-121320476D01*
X173375952Y-121272857D01*
X173518810Y-121272857D01*
X173709286Y-121320476D01*
X173804524Y-121368095D01*
X173899762Y-121463333D01*
X173947381Y-121606191D01*
X173947381Y-121844286D01*
X171359762Y-123939524D02*
X171407381Y-123796667D01*
X171407381Y-123558571D01*
X171359762Y-123463333D01*
X171312143Y-123415714D01*
X171216905Y-123368095D01*
X171121667Y-123368095D01*
X171026429Y-123415714D01*
X170978810Y-123463333D01*
X170931190Y-123558571D01*
X170883571Y-123749048D01*
X170835952Y-123844286D01*
X170788333Y-123891905D01*
X170693095Y-123939524D01*
X170597857Y-123939524D01*
X170502619Y-123891905D01*
X170455000Y-123844286D01*
X170407381Y-123749048D01*
X170407381Y-123510952D01*
X170455000Y-123368095D01*
X171407381Y-122939524D02*
X170407381Y-122939524D01*
X170407381Y-122701429D01*
X170455000Y-122558571D01*
X170550238Y-122463333D01*
X170645476Y-122415714D01*
X170835952Y-122368095D01*
X170978810Y-122368095D01*
X171169286Y-122415714D01*
X171264524Y-122463333D01*
X171359762Y-122558571D01*
X171407381Y-122701429D01*
X171407381Y-122939524D01*
X171121667Y-121987143D02*
X171121667Y-121510952D01*
X171407381Y-122082381D02*
X170407381Y-121749048D01*
X171407381Y-121415714D01*
X168819762Y-123939524D02*
X168867381Y-123796667D01*
X168867381Y-123558571D01*
X168819762Y-123463333D01*
X168772143Y-123415714D01*
X168676905Y-123368095D01*
X168581667Y-123368095D01*
X168486429Y-123415714D01*
X168438810Y-123463333D01*
X168391190Y-123558571D01*
X168343571Y-123749048D01*
X168295952Y-123844286D01*
X168248333Y-123891905D01*
X168153095Y-123939524D01*
X168057857Y-123939524D01*
X167962619Y-123891905D01*
X167915000Y-123844286D01*
X167867381Y-123749048D01*
X167867381Y-123510952D01*
X167915000Y-123368095D01*
X168772143Y-122368095D02*
X168819762Y-122415714D01*
X168867381Y-122558571D01*
X168867381Y-122653809D01*
X168819762Y-122796667D01*
X168724524Y-122891905D01*
X168629286Y-122939524D01*
X168438810Y-122987143D01*
X168295952Y-122987143D01*
X168105476Y-122939524D01*
X168010238Y-122891905D01*
X167915000Y-122796667D01*
X167867381Y-122653809D01*
X167867381Y-122558571D01*
X167915000Y-122415714D01*
X167962619Y-122368095D01*
X168867381Y-121463333D02*
X168867381Y-121939524D01*
X167867381Y-121939524D01*
X165327381Y-123987143D02*
X165327381Y-123368095D01*
X165708333Y-123701429D01*
X165708333Y-123558571D01*
X165755952Y-123463333D01*
X165803571Y-123415714D01*
X165898810Y-123368095D01*
X166136905Y-123368095D01*
X166232143Y-123415714D01*
X166279762Y-123463333D01*
X166327381Y-123558571D01*
X166327381Y-123844286D01*
X166279762Y-123939524D01*
X166232143Y-123987143D01*
X165327381Y-123082381D02*
X166327381Y-122749048D01*
X165327381Y-122415714D01*
X165327381Y-122177619D02*
X165327381Y-121558571D01*
X165708333Y-121891905D01*
X165708333Y-121749047D01*
X165755952Y-121653809D01*
X165803571Y-121606190D01*
X165898810Y-121558571D01*
X166136905Y-121558571D01*
X166232143Y-121606190D01*
X166279762Y-121653809D01*
X166327381Y-121749047D01*
X166327381Y-122034762D01*
X166279762Y-122130000D01*
X166232143Y-122177619D01*
X117335000Y-85945000D02*
X125995000Y-85945000D01*
X125995000Y-85945000D02*
X125995000Y-79805000D01*
X125995000Y-79805000D02*
X117335000Y-79805000D01*
X117335000Y-79805000D02*
X117335000Y-85945000D01*
X125995000Y-84275000D02*
X126615000Y-84275000D01*
X126615000Y-84275000D02*
X126615000Y-83975000D01*
X126615000Y-83975000D02*
X125995000Y-83975000D01*
X125995000Y-83975000D02*
X125995000Y-84275000D01*
X125995000Y-81775000D02*
X126615000Y-81775000D01*
X126615000Y-81775000D02*
X126615000Y-81475000D01*
X126615000Y-81475000D02*
X125995000Y-81475000D01*
X125995000Y-81475000D02*
X125995000Y-81775000D01*
X130315000Y-85525000D02*
X130615000Y-86125000D01*
X130615000Y-86125000D02*
X130015000Y-86125000D01*
X130015000Y-86125000D02*
X130315000Y-85525000D01*
X170605000Y-119720000D02*
X171305000Y-119720000D01*
X171305000Y-120920000D02*
X170605000Y-120920000D01*
X168130000Y-120920000D02*
X167430000Y-120920000D01*
X167430000Y-119720000D02*
X168130000Y-119720000D01*
X140440000Y-120605000D02*
X140440000Y-121305000D01*
X139240000Y-121305000D02*
X139240000Y-120605000D01*
X142665000Y-102575000D02*
X143365000Y-102575000D01*
X143365000Y-103775000D02*
X142665000Y-103775000D01*
X142665000Y-104480000D02*
X143365000Y-104480000D01*
X143365000Y-105680000D02*
X142665000Y-105680000D01*
X170605000Y-114640000D02*
X171305000Y-114640000D01*
X171305000Y-115840000D02*
X170605000Y-115840000D01*
X168130000Y-115840000D02*
X167430000Y-115840000D01*
X167430000Y-114640000D02*
X168130000Y-114640000D01*
X126220000Y-101616000D02*
X125520000Y-101616000D01*
X125520000Y-100416000D02*
X126220000Y-100416000D01*
X135745000Y-103140000D02*
X135045000Y-103140000D01*
X135045000Y-101940000D02*
X135745000Y-101940000D01*
X138220000Y-101940000D02*
X138920000Y-101940000D01*
X138920000Y-103140000D02*
X138220000Y-103140000D01*
X142145000Y-115940000D02*
X142490000Y-115940000D01*
X142145000Y-108190000D02*
X142490000Y-108190000D01*
X154045000Y-108190000D02*
X153700000Y-108190000D01*
X154045000Y-115940000D02*
X153700000Y-115940000D01*
X142145000Y-115940000D02*
X142145000Y-108190000D01*
X154045000Y-115940000D02*
X154045000Y-108190000D01*
X142490000Y-115940000D02*
X142490000Y-117765000D01*
X142845000Y-118380000D02*
X142845000Y-118525000D01*
X146995000Y-118380000D02*
X146995000Y-118525000D01*
X146995000Y-123530000D02*
X146995000Y-123385000D01*
X142845000Y-123530000D02*
X142845000Y-123385000D01*
X142845000Y-118380000D02*
X146995000Y-118380000D01*
X142845000Y-123530000D02*
X146995000Y-123530000D01*
X142845000Y-118525000D02*
X141445000Y-118525000D01*
X130885000Y-103575000D02*
X130885000Y-103920000D01*
X138635000Y-103575000D02*
X138635000Y-103920000D01*
X138635000Y-115475000D02*
X138635000Y-115130000D01*
X130885000Y-115475000D02*
X130885000Y-115130000D01*
X130885000Y-103575000D02*
X138635000Y-103575000D01*
X130885000Y-115475000D02*
X138635000Y-115475000D01*
X130885000Y-103920000D02*
X129060000Y-103920000D01*
X127810000Y-103640000D02*
X127665000Y-103640000D01*
X127810000Y-107790000D02*
X127665000Y-107790000D01*
X122660000Y-107790000D02*
X122805000Y-107790000D01*
X122660000Y-103640000D02*
X122805000Y-103640000D01*
X127810000Y-103640000D02*
X127810000Y-107790000D01*
X122660000Y-103640000D02*
X122660000Y-107790000D01*
X127665000Y-103640000D02*
X127665000Y-102240000D01*
D10*
X170997500Y-109380000D02*
G75*
G03X170997500Y-109380000I-50000J0D01*
G01*
D11*
X171185000Y-113180000D02*
X171185000Y-113680000D01*
X171185000Y-113680000D02*
X170435000Y-113680000D01*
X170435000Y-109180000D02*
X171185000Y-109180000D01*
X171185000Y-109180000D02*
X171185000Y-109680000D01*
X168185000Y-109180000D02*
X168185000Y-109680000D01*
X168185000Y-109180000D02*
X168935000Y-109180000D01*
X168185000Y-113180000D02*
X168185000Y-113680000D01*
X168185000Y-113680000D02*
X168935000Y-113680000D01*
X147530000Y-89960000D02*
X147530000Y-97580000D01*
X150070000Y-89960000D02*
X150070000Y-97580000D01*
X150350000Y-87140000D02*
X150350000Y-88690000D01*
X147530000Y-97580000D02*
X150070000Y-97580000D01*
X150070000Y-89960000D02*
X147530000Y-89960000D01*
X147250000Y-88690000D02*
X147250000Y-87140000D01*
X147250000Y-87140000D02*
X150350000Y-87140000D01*
X124930000Y-88880000D02*
X124930000Y-93960000D01*
X124930000Y-93960000D02*
X127470000Y-93960000D01*
X127470000Y-93960000D02*
X127470000Y-88880000D01*
X127750000Y-86060000D02*
X127750000Y-87610000D01*
X127470000Y-88880000D02*
X124930000Y-88880000D01*
X124650000Y-87610000D02*
X124650000Y-86060000D01*
X124650000Y-86060000D02*
X127750000Y-86060000D01*
X128080000Y-91510000D02*
G75*
G03X128080000Y-91510000I-100000J0D01*
G01*
X128230000Y-90860000D02*
X128230000Y-91360000D01*
X131130000Y-90860000D02*
X128230000Y-90860000D01*
X131130000Y-91360000D02*
X131130000Y-90860000D01*
X128230000Y-91360000D02*
X131130000Y-91360000D01*
X129029760Y-86000840D02*
X129029760Y-86049100D01*
X129730800Y-88799820D02*
X129029760Y-88799820D01*
X129029760Y-88799820D02*
X129029760Y-88550900D01*
X129029760Y-86000840D02*
X129029760Y-85800180D01*
X129029760Y-85800180D02*
X129730800Y-85800180D01*
X174170000Y-119820000D02*
X174170000Y-120820000D01*
X172820000Y-120820000D02*
X172820000Y-119820000D01*
X138610000Y-121725000D02*
X138610000Y-122725000D01*
X137260000Y-122725000D02*
X137260000Y-121725000D01*
X174170000Y-116645000D02*
X174170000Y-117645000D01*
X172820000Y-117645000D02*
X172820000Y-116645000D01*
X137260000Y-119550000D02*
X137260000Y-118550000D01*
X138610000Y-118550000D02*
X138610000Y-119550000D01*
X132895000Y-91245000D02*
X132895000Y-92245000D01*
X131545000Y-92245000D02*
X131545000Y-91245000D01*
X131545000Y-89070000D02*
X131545000Y-88070000D01*
X132895000Y-88070000D02*
X132895000Y-89070000D01*
X154310000Y-122900000D02*
X153310000Y-122900000D01*
X153310000Y-121550000D02*
X154310000Y-121550000D01*
X143515000Y-101945000D02*
X142515000Y-101945000D01*
X142515000Y-100595000D02*
X143515000Y-100595000D01*
X124560000Y-115105000D02*
X124560000Y-114105000D01*
X125910000Y-114105000D02*
X125910000Y-115105000D01*
X172820000Y-110660000D02*
X172820000Y-109660000D01*
X174170000Y-109660000D02*
X174170000Y-110660000D01*
X174725000Y-110660000D02*
X174725000Y-109660000D01*
X176075000Y-109660000D02*
X176075000Y-110660000D01*
X176630000Y-110660000D02*
X176630000Y-109660000D01*
X177980000Y-109660000D02*
X177980000Y-110660000D01*
X172820000Y-113835000D02*
X172820000Y-112835000D01*
X174170000Y-112835000D02*
X174170000Y-113835000D01*
X174725000Y-113835000D02*
X174725000Y-112835000D01*
X176075000Y-112835000D02*
X176075000Y-113835000D01*
X176630000Y-113835000D02*
X176630000Y-112835000D01*
X177980000Y-112835000D02*
X177980000Y-113835000D01*
X124465000Y-100040000D02*
X123465000Y-100040000D01*
X123465000Y-98690000D02*
X124465000Y-98690000D01*
X126640000Y-98690000D02*
X127640000Y-98690000D01*
X127640000Y-100040000D02*
X126640000Y-100040000D01*
X123465000Y-110120000D02*
X124465000Y-110120000D01*
X124465000Y-111470000D02*
X123465000Y-111470000D01*
X132720000Y-103215000D02*
X131720000Y-103215000D01*
X131720000Y-101865000D02*
X132720000Y-101865000D01*
X122655000Y-115105000D02*
X122655000Y-114105000D01*
X124005000Y-114105000D02*
X124005000Y-115105000D01*
X165534000Y-107882000D02*
X165534000Y-108882000D01*
X164184000Y-108882000D02*
X164184000Y-107882000D01*
X167312000Y-107882000D02*
X167312000Y-108882000D01*
X165962000Y-108882000D02*
X165962000Y-107882000D01*
X130955000Y-122285000D02*
X131255000Y-122285000D01*
X131255000Y-121985000D02*
X131255000Y-122285000D01*
X123405000Y-122785000D02*
X129605000Y-122785000D01*
X129605000Y-122785000D02*
X129605000Y-122235000D01*
X123405000Y-116585000D02*
X129605000Y-116585000D01*
X123405000Y-116585000D02*
X123405000Y-117135000D01*
X129605000Y-117135000D02*
X129605000Y-116585000D01*
X123405000Y-122235000D02*
X123405000Y-122785000D01*
X150870000Y-119035000D02*
X150470000Y-119035000D01*
X151670000Y-119035000D02*
X152070000Y-119035000D01*
X150870000Y-120335000D02*
X150470000Y-120335000D01*
X149670000Y-120335000D02*
X149670000Y-119035000D01*
X151670000Y-120335000D02*
X152070000Y-120335000D01*
X152870000Y-119035000D02*
X152870000Y-120335000D01*
X127790000Y-111665000D02*
X127790000Y-111265000D01*
X127790000Y-112465000D02*
X127790000Y-112865000D01*
X126490000Y-111665000D02*
X126490000Y-111265000D01*
X126490000Y-110465000D02*
X127790000Y-110465000D01*
X126490000Y-112465000D02*
X126490000Y-112865000D01*
X127790000Y-113665000D02*
X126490000Y-113665000D01*
X124600000Y-73210000D02*
X124600000Y-78290000D01*
X124600000Y-78290000D02*
X125224000Y-78290000D01*
X175400000Y-78290000D02*
X175400000Y-73210000D01*
X175400000Y-73210000D02*
X174776000Y-73210000D01*
X175400000Y-78290000D02*
X174776000Y-78290000D01*
X125224000Y-73210000D02*
X124600000Y-73210000D01*
X127764000Y-73210000D02*
X126516000Y-73210000D01*
X130304000Y-73210000D02*
X129056000Y-73210000D01*
X132844000Y-73210000D02*
X131596000Y-73210000D01*
X135384000Y-73210000D02*
X134136000Y-73210000D01*
X137924000Y-73210000D02*
X136676000Y-73210000D01*
X140464000Y-73210000D02*
X139216000Y-73210000D01*
X143004000Y-73210000D02*
X141756000Y-73210000D01*
X145544000Y-73210000D02*
X144296000Y-73210000D01*
X148084000Y-73210000D02*
X146836000Y-73210000D01*
X150624000Y-73210000D02*
X149376000Y-73210000D01*
X153164000Y-73210000D02*
X151916000Y-73210000D01*
X155704000Y-73210000D02*
X154456000Y-73210000D01*
X158244000Y-73210000D02*
X156996000Y-73210000D01*
X160784000Y-73210000D02*
X159536000Y-73210000D01*
X163324000Y-73210000D02*
X162076000Y-73210000D01*
X165864000Y-73210000D02*
X164616000Y-73210000D01*
X168404000Y-73210000D02*
X167156000Y-73210000D01*
X170944000Y-73210000D02*
X169696000Y-73210000D01*
X173484000Y-73210000D02*
X172236000Y-73210000D01*
X125224000Y-78290000D02*
X124600000Y-78290000D01*
X127764000Y-78290000D02*
X126516000Y-78290000D01*
X130304000Y-78290000D02*
X129056000Y-78290000D01*
X132844000Y-78290000D02*
X131596000Y-78290000D01*
X135384000Y-78290000D02*
X134136000Y-78290000D01*
X137924000Y-78290000D02*
X136676000Y-78290000D01*
X140464000Y-78290000D02*
X139216000Y-78290000D01*
X143004000Y-78290000D02*
X141756000Y-78290000D01*
X145544000Y-78290000D02*
X144296000Y-78290000D01*
X148084000Y-78290000D02*
X146836000Y-78290000D01*
X150624000Y-78290000D02*
X149376000Y-78290000D01*
X153164000Y-78290000D02*
X151916000Y-78290000D01*
X155704000Y-78290000D02*
X154456000Y-78290000D01*
X158244000Y-78290000D02*
X156996000Y-78290000D01*
X160784000Y-78290000D02*
X159536000Y-78290000D01*
X163324000Y-78290000D02*
X162076000Y-78290000D01*
X165864000Y-78290000D02*
X164616000Y-78290000D01*
X168404000Y-78290000D02*
X167156000Y-78290000D01*
X170944000Y-78290000D02*
X169696000Y-78290000D01*
X173484000Y-78290000D02*
X172236000Y-78290000D01*
X117300000Y-111415000D02*
X111500000Y-111415000D01*
X111500000Y-111415000D02*
X111500000Y-95085000D01*
X111500000Y-95085000D02*
X117300000Y-95085000D01*
X121200000Y-87845000D02*
X121200000Y-88884000D01*
X121200000Y-118655000D02*
X121200000Y-117616000D01*
X121200000Y-87845000D02*
X117300000Y-87845000D01*
X117300000Y-87845000D02*
X117300000Y-118655000D01*
X117300000Y-118655000D02*
X121200000Y-118655000D01*
X121200000Y-92626000D02*
X121200000Y-96750000D01*
X121200000Y-109750000D02*
X121200000Y-113874000D01*
X150665000Y-128450000D02*
X150665000Y-134250000D01*
X150665000Y-134250000D02*
X134335000Y-134250000D01*
X134335000Y-134250000D02*
X134335000Y-128450000D01*
X127095000Y-124550000D02*
X128134000Y-124550000D01*
X157905000Y-124550000D02*
X156866000Y-124550000D01*
X127095000Y-124550000D02*
X127095000Y-128450000D01*
X127095000Y-128450000D02*
X157905000Y-128450000D01*
X157905000Y-128450000D02*
X157905000Y-124550000D01*
X131876000Y-124550000D02*
X136000000Y-124550000D01*
X149000000Y-124550000D02*
X153124000Y-124550000D01*
X152575000Y-84475000D02*
X152575000Y-83775000D01*
X153775000Y-83775000D02*
X153775000Y-84475000D01*
X160120000Y-83990000D02*
X160120000Y-82990000D01*
X161470000Y-82990000D02*
X161470000Y-83990000D01*
X156850000Y-81625000D02*
X155850000Y-81625000D01*
X155850000Y-80275000D02*
X156850000Y-80275000D01*
X159025000Y-80275000D02*
X160025000Y-80275000D01*
X160025000Y-81625000D02*
X159025000Y-81625000D01*
X154410000Y-88105000D02*
X154555000Y-88105000D01*
X154410000Y-83955000D02*
X154555000Y-83955000D01*
X159560000Y-83955000D02*
X159415000Y-83955000D01*
X159560000Y-88105000D02*
X159415000Y-88105000D01*
X154410000Y-88105000D02*
X154410000Y-83955000D01*
X159560000Y-88105000D02*
X159560000Y-83955000D01*
X154555000Y-88105000D02*
X154555000Y-89505000D01*
X167145000Y-127305000D02*
X174765000Y-127305000D01*
X167145000Y-124765000D02*
X174765000Y-124765000D01*
X164325000Y-124485000D02*
X165875000Y-124485000D01*
X174765000Y-127305000D02*
X174765000Y-124765000D01*
X167145000Y-124765000D02*
X167145000Y-127305000D01*
X165875000Y-127585000D02*
X164325000Y-127585000D01*
X164325000Y-127585000D02*
X164325000Y-124485000D01*
X168285000Y-119030000D02*
X168285000Y-118780000D01*
X170935000Y-116530000D02*
X168435000Y-116530000D01*
X168285000Y-119030000D02*
X170935000Y-119030000D01*
X161235000Y-86145000D02*
X161235000Y-85915000D01*
X160355000Y-85915000D02*
X160355000Y-86145000D01*
X135610000Y-95420000D02*
X135610000Y-94420000D01*
X133910000Y-94420000D02*
X133910000Y-95420000D01*
X142800000Y-94420000D02*
X142800000Y-95420000D01*
X144500000Y-95420000D02*
X144500000Y-94420000D01*
X133832900Y-89205000D02*
X133832900Y-93015000D01*
X133832900Y-93015000D02*
X144577100Y-93015000D01*
X144577100Y-89205000D02*
X144577100Y-93015000D01*
X131450000Y-98525000D02*
G75*
G03X131450000Y-98525000I-100000J0D01*
G01*
X130700000Y-98275000D02*
X131200000Y-98275000D01*
X130700000Y-95375000D02*
X130700000Y-98275000D01*
X131200000Y-95375000D02*
X130700000Y-95375000D01*
X131200000Y-98275000D02*
X131200000Y-95375000D01*
X125840840Y-97475240D02*
X125889100Y-97475240D01*
X128639820Y-96774200D02*
X128639820Y-97475240D01*
X128639820Y-97475240D02*
X128390900Y-97475240D01*
X125840840Y-97475240D02*
X125640180Y-97475240D01*
X125640180Y-97475240D02*
X125640180Y-96774200D01*
X131720000Y-93610000D02*
X132720000Y-93610000D01*
X132720000Y-94960000D02*
X131720000Y-94960000D01*
X129545000Y-94960000D02*
X128545000Y-94960000D01*
X128545000Y-93610000D02*
X129545000Y-93610000D01*
X125489000Y-125273000D02*
X126124000Y-125273000D01*
X126124000Y-125273000D02*
X126124000Y-124257000D01*
X124346000Y-124257000D02*
X124346000Y-125273000D01*
X124346000Y-125273000D02*
X124981000Y-125273000D01*
X125489000Y-125400000D02*
X125489000Y-125273000D01*
X124981000Y-125273000D02*
X124981000Y-125400000D01*
X126124000Y-124257000D02*
X124346000Y-124257000D01*
X124981000Y-125400000D02*
X125489000Y-125400000D01*
X151143000Y-122606000D02*
X151143000Y-121971000D01*
X151143000Y-121971000D02*
X150127000Y-121971000D01*
X150127000Y-123749000D02*
X151143000Y-123749000D01*
X151143000Y-123749000D02*
X151143000Y-123114000D01*
X151270000Y-122606000D02*
X151143000Y-122606000D01*
X151143000Y-123114000D02*
X151270000Y-123114000D01*
X150127000Y-121971000D02*
X150127000Y-123749000D01*
X151270000Y-123114000D02*
X151270000Y-122606000D01*
X117765905Y-79497381D02*
X117765905Y-78497381D01*
X118146858Y-78497381D01*
X118242096Y-78545000D01*
X118289715Y-78592619D01*
X118337334Y-78687857D01*
X118337334Y-78830714D01*
X118289715Y-78925952D01*
X118242096Y-78973571D01*
X118146858Y-79021190D01*
X117765905Y-79021190D01*
X118670667Y-78497381D02*
X119337334Y-78497381D01*
X118908762Y-79497381D01*
X172328143Y-118962666D02*
X172375762Y-119010285D01*
X172423381Y-119153142D01*
X172423381Y-119248380D01*
X172375762Y-119391238D01*
X172280524Y-119486476D01*
X172185286Y-119534095D01*
X171994810Y-119581714D01*
X171851952Y-119581714D01*
X171661476Y-119534095D01*
X171566238Y-119486476D01*
X171471000Y-119391238D01*
X171423381Y-119248380D01*
X171423381Y-119153142D01*
X171471000Y-119010285D01*
X171518619Y-118962666D01*
X172423381Y-118010285D02*
X172423381Y-118581714D01*
X172423381Y-118296000D02*
X171423381Y-118296000D01*
X171566238Y-118391238D01*
X171661476Y-118486476D01*
X171709095Y-118581714D01*
X165200334Y-120677143D02*
X165152715Y-120724762D01*
X165009858Y-120772381D01*
X164914620Y-120772381D01*
X164771762Y-120724762D01*
X164676524Y-120629524D01*
X164628905Y-120534286D01*
X164581286Y-120343810D01*
X164581286Y-120200952D01*
X164628905Y-120010476D01*
X164676524Y-119915238D01*
X164771762Y-119820000D01*
X164914620Y-119772381D01*
X165009858Y-119772381D01*
X165152715Y-119820000D01*
X165200334Y-119867619D01*
X165581286Y-119867619D02*
X165628905Y-119820000D01*
X165724143Y-119772381D01*
X165962239Y-119772381D01*
X166057477Y-119820000D01*
X166105096Y-119867619D01*
X166152715Y-119962857D01*
X166152715Y-120058095D01*
X166105096Y-120200952D01*
X165533667Y-120772381D01*
X166152715Y-120772381D01*
X140197143Y-123407666D02*
X140244762Y-123455285D01*
X140292381Y-123598142D01*
X140292381Y-123693380D01*
X140244762Y-123836238D01*
X140149524Y-123931476D01*
X140054286Y-123979095D01*
X139863810Y-124026714D01*
X139720952Y-124026714D01*
X139530476Y-123979095D01*
X139435238Y-123931476D01*
X139340000Y-123836238D01*
X139292381Y-123693380D01*
X139292381Y-123598142D01*
X139340000Y-123455285D01*
X139387619Y-123407666D01*
X139292381Y-123074333D02*
X139292381Y-122455285D01*
X139673333Y-122788619D01*
X139673333Y-122645761D01*
X139720952Y-122550523D01*
X139768571Y-122502904D01*
X139863810Y-122455285D01*
X140101905Y-122455285D01*
X140197143Y-122502904D01*
X140244762Y-122550523D01*
X140292381Y-122645761D01*
X140292381Y-122931476D01*
X140244762Y-123026714D01*
X140197143Y-123074333D01*
X145134334Y-103532143D02*
X145086715Y-103579762D01*
X144943858Y-103627381D01*
X144848620Y-103627381D01*
X144705762Y-103579762D01*
X144610524Y-103484524D01*
X144562905Y-103389286D01*
X144515286Y-103198810D01*
X144515286Y-103055952D01*
X144562905Y-102865476D01*
X144610524Y-102770238D01*
X144705762Y-102675000D01*
X144848620Y-102627381D01*
X144943858Y-102627381D01*
X145086715Y-102675000D01*
X145134334Y-102722619D01*
X145991477Y-102960714D02*
X145991477Y-103627381D01*
X145753381Y-102579762D02*
X145515286Y-103294048D01*
X146134334Y-103294048D01*
X145134334Y-105437143D02*
X145086715Y-105484762D01*
X144943858Y-105532381D01*
X144848620Y-105532381D01*
X144705762Y-105484762D01*
X144610524Y-105389524D01*
X144562905Y-105294286D01*
X144515286Y-105103810D01*
X144515286Y-104960952D01*
X144562905Y-104770476D01*
X144610524Y-104675238D01*
X144705762Y-104580000D01*
X144848620Y-104532381D01*
X144943858Y-104532381D01*
X145086715Y-104580000D01*
X145134334Y-104627619D01*
X146039096Y-104532381D02*
X145562905Y-104532381D01*
X145515286Y-105008571D01*
X145562905Y-104960952D01*
X145658143Y-104913333D01*
X145896239Y-104913333D01*
X145991477Y-104960952D01*
X146039096Y-105008571D01*
X146086715Y-105103810D01*
X146086715Y-105341905D01*
X146039096Y-105437143D01*
X145991477Y-105484762D01*
X145896239Y-105532381D01*
X145658143Y-105532381D01*
X145562905Y-105484762D01*
X145515286Y-105437143D01*
X173074334Y-115597143D02*
X173026715Y-115644762D01*
X172883858Y-115692381D01*
X172788620Y-115692381D01*
X172645762Y-115644762D01*
X172550524Y-115549524D01*
X172502905Y-115454286D01*
X172455286Y-115263810D01*
X172455286Y-115120952D01*
X172502905Y-114930476D01*
X172550524Y-114835238D01*
X172645762Y-114740000D01*
X172788620Y-114692381D01*
X172883858Y-114692381D01*
X173026715Y-114740000D01*
X173074334Y-114787619D01*
X173931477Y-114692381D02*
X173741000Y-114692381D01*
X173645762Y-114740000D01*
X173598143Y-114787619D01*
X173502905Y-114930476D01*
X173455286Y-115120952D01*
X173455286Y-115501905D01*
X173502905Y-115597143D01*
X173550524Y-115644762D01*
X173645762Y-115692381D01*
X173836239Y-115692381D01*
X173931477Y-115644762D01*
X173979096Y-115597143D01*
X174026715Y-115501905D01*
X174026715Y-115263810D01*
X173979096Y-115168571D01*
X173931477Y-115120952D01*
X173836239Y-115073333D01*
X173645762Y-115073333D01*
X173550524Y-115120952D01*
X173502905Y-115168571D01*
X173455286Y-115263810D01*
X165200334Y-115597143D02*
X165152715Y-115644762D01*
X165009858Y-115692381D01*
X164914620Y-115692381D01*
X164771762Y-115644762D01*
X164676524Y-115549524D01*
X164628905Y-115454286D01*
X164581286Y-115263810D01*
X164581286Y-115120952D01*
X164628905Y-114930476D01*
X164676524Y-114835238D01*
X164771762Y-114740000D01*
X164914620Y-114692381D01*
X165009858Y-114692381D01*
X165152715Y-114740000D01*
X165200334Y-114787619D01*
X165533667Y-114692381D02*
X166200334Y-114692381D01*
X165771762Y-115692381D01*
X125703334Y-103273143D02*
X125655715Y-103320762D01*
X125512858Y-103368381D01*
X125417620Y-103368381D01*
X125274762Y-103320762D01*
X125179524Y-103225524D01*
X125131905Y-103130286D01*
X125084286Y-102939810D01*
X125084286Y-102796952D01*
X125131905Y-102606476D01*
X125179524Y-102511238D01*
X125274762Y-102416000D01*
X125417620Y-102368381D01*
X125512858Y-102368381D01*
X125655715Y-102416000D01*
X125703334Y-102463619D01*
X126274762Y-102796952D02*
X126179524Y-102749333D01*
X126131905Y-102701714D01*
X126084286Y-102606476D01*
X126084286Y-102558857D01*
X126131905Y-102463619D01*
X126179524Y-102416000D01*
X126274762Y-102368381D01*
X126465239Y-102368381D01*
X126560477Y-102416000D01*
X126608096Y-102463619D01*
X126655715Y-102558857D01*
X126655715Y-102606476D01*
X126608096Y-102701714D01*
X126560477Y-102749333D01*
X126465239Y-102796952D01*
X126274762Y-102796952D01*
X126179524Y-102844571D01*
X126131905Y-102892190D01*
X126084286Y-102987429D01*
X126084286Y-103177905D01*
X126131905Y-103273143D01*
X126179524Y-103320762D01*
X126274762Y-103368381D01*
X126465239Y-103368381D01*
X126560477Y-103320762D01*
X126608096Y-103273143D01*
X126655715Y-103177905D01*
X126655715Y-102987429D01*
X126608096Y-102892190D01*
X126560477Y-102844571D01*
X126465239Y-102796952D01*
X135228334Y-101500143D02*
X135180715Y-101547762D01*
X135037858Y-101595381D01*
X134942620Y-101595381D01*
X134799762Y-101547762D01*
X134704524Y-101452524D01*
X134656905Y-101357286D01*
X134609286Y-101166810D01*
X134609286Y-101023952D01*
X134656905Y-100833476D01*
X134704524Y-100738238D01*
X134799762Y-100643000D01*
X134942620Y-100595381D01*
X135037858Y-100595381D01*
X135180715Y-100643000D01*
X135228334Y-100690619D01*
X135704524Y-101595381D02*
X135895000Y-101595381D01*
X135990239Y-101547762D01*
X136037858Y-101500143D01*
X136133096Y-101357286D01*
X136180715Y-101166810D01*
X136180715Y-100785857D01*
X136133096Y-100690619D01*
X136085477Y-100643000D01*
X135990239Y-100595381D01*
X135799762Y-100595381D01*
X135704524Y-100643000D01*
X135656905Y-100690619D01*
X135609286Y-100785857D01*
X135609286Y-101023952D01*
X135656905Y-101119190D01*
X135704524Y-101166810D01*
X135799762Y-101214429D01*
X135990239Y-101214429D01*
X136085477Y-101166810D01*
X136133096Y-101119190D01*
X136180715Y-101023952D01*
X137927143Y-101500143D02*
X137879524Y-101547762D01*
X137736667Y-101595381D01*
X137641429Y-101595381D01*
X137498571Y-101547762D01*
X137403333Y-101452524D01*
X137355714Y-101357286D01*
X137308095Y-101166810D01*
X137308095Y-101023952D01*
X137355714Y-100833476D01*
X137403333Y-100738238D01*
X137498571Y-100643000D01*
X137641429Y-100595381D01*
X137736667Y-100595381D01*
X137879524Y-100643000D01*
X137927143Y-100690619D01*
X138879524Y-101595381D02*
X138308095Y-101595381D01*
X138593809Y-101595381D02*
X138593809Y-100595381D01*
X138498571Y-100738238D01*
X138403333Y-100833476D01*
X138308095Y-100881095D01*
X139498571Y-100595381D02*
X139593810Y-100595381D01*
X139689048Y-100643000D01*
X139736667Y-100690619D01*
X139784286Y-100785857D01*
X139831905Y-100976333D01*
X139831905Y-101214429D01*
X139784286Y-101404905D01*
X139736667Y-101500143D01*
X139689048Y-101547762D01*
X139593810Y-101595381D01*
X139498571Y-101595381D01*
X139403333Y-101547762D01*
X139355714Y-101500143D01*
X139308095Y-101404905D01*
X139260476Y-101214429D01*
X139260476Y-100976333D01*
X139308095Y-100785857D01*
X139355714Y-100690619D01*
X139403333Y-100643000D01*
X139498571Y-100595381D01*
X155405381Y-115962190D02*
X154405381Y-115962190D01*
X155310143Y-114914571D02*
X155357762Y-114962190D01*
X155405381Y-115105047D01*
X155405381Y-115200285D01*
X155357762Y-115343143D01*
X155262524Y-115438381D01*
X155167286Y-115486000D01*
X154976810Y-115533619D01*
X154833952Y-115533619D01*
X154643476Y-115486000D01*
X154548238Y-115438381D01*
X154453000Y-115343143D01*
X154405381Y-115200285D01*
X154405381Y-115105047D01*
X154453000Y-114962190D01*
X154500619Y-114914571D01*
X155405381Y-113962190D02*
X155405381Y-114533619D01*
X155405381Y-114247905D02*
X154405381Y-114247905D01*
X154548238Y-114343143D01*
X154643476Y-114438381D01*
X154691095Y-114533619D01*
X140133810Y-118232381D02*
X140133810Y-117232381D01*
X141181429Y-118137143D02*
X141133810Y-118184762D01*
X140990953Y-118232381D01*
X140895715Y-118232381D01*
X140752857Y-118184762D01*
X140657619Y-118089524D01*
X140610000Y-117994286D01*
X140562381Y-117803810D01*
X140562381Y-117660952D01*
X140610000Y-117470476D01*
X140657619Y-117375238D01*
X140752857Y-117280000D01*
X140895715Y-117232381D01*
X140990953Y-117232381D01*
X141133810Y-117280000D01*
X141181429Y-117327619D01*
X141562381Y-117327619D02*
X141610000Y-117280000D01*
X141705238Y-117232381D01*
X141943334Y-117232381D01*
X142038572Y-117280000D01*
X142086191Y-117327619D01*
X142133810Y-117422857D01*
X142133810Y-117518095D01*
X142086191Y-117660952D01*
X141514762Y-118232381D01*
X142133810Y-118232381D01*
X136577810Y-116708381D02*
X136577810Y-115708381D01*
X137625429Y-116613143D02*
X137577810Y-116660762D01*
X137434953Y-116708381D01*
X137339715Y-116708381D01*
X137196857Y-116660762D01*
X137101619Y-116565524D01*
X137054000Y-116470286D01*
X137006381Y-116279810D01*
X137006381Y-116136952D01*
X137054000Y-115946476D01*
X137101619Y-115851238D01*
X137196857Y-115756000D01*
X137339715Y-115708381D01*
X137434953Y-115708381D01*
X137577810Y-115756000D01*
X137625429Y-115803619D01*
X137958762Y-115708381D02*
X138577810Y-115708381D01*
X138244476Y-116089333D01*
X138387334Y-116089333D01*
X138482572Y-116136952D01*
X138530191Y-116184571D01*
X138577810Y-116279810D01*
X138577810Y-116517905D01*
X138530191Y-116613143D01*
X138482572Y-116660762D01*
X138387334Y-116708381D01*
X138101619Y-116708381D01*
X138006381Y-116660762D01*
X137958762Y-116613143D01*
X122766381Y-102754190D02*
X121766381Y-102754190D01*
X122671143Y-101706571D02*
X122718762Y-101754190D01*
X122766381Y-101897047D01*
X122766381Y-101992285D01*
X122718762Y-102135143D01*
X122623524Y-102230381D01*
X122528286Y-102278000D01*
X122337810Y-102325619D01*
X122194952Y-102325619D01*
X122004476Y-102278000D01*
X121909238Y-102230381D01*
X121814000Y-102135143D01*
X121766381Y-101992285D01*
X121766381Y-101897047D01*
X121814000Y-101754190D01*
X121861619Y-101706571D01*
X122099714Y-100849428D02*
X122766381Y-100849428D01*
X121718762Y-101087524D02*
X122433048Y-101325619D01*
X122433048Y-100706571D01*
X168708810Y-108707381D02*
X168708810Y-107707381D01*
X169756429Y-108612143D02*
X169708810Y-108659762D01*
X169565953Y-108707381D01*
X169470715Y-108707381D01*
X169327857Y-108659762D01*
X169232619Y-108564524D01*
X169185000Y-108469286D01*
X169137381Y-108278810D01*
X169137381Y-108135952D01*
X169185000Y-107945476D01*
X169232619Y-107850238D01*
X169327857Y-107755000D01*
X169470715Y-107707381D01*
X169565953Y-107707381D01*
X169708810Y-107755000D01*
X169756429Y-107802619D01*
X170661191Y-107707381D02*
X170185000Y-107707381D01*
X170137381Y-108183571D01*
X170185000Y-108135952D01*
X170280238Y-108088333D01*
X170518334Y-108088333D01*
X170613572Y-108135952D01*
X170661191Y-108183571D01*
X170708810Y-108278810D01*
X170708810Y-108516905D01*
X170661191Y-108612143D01*
X170613572Y-108659762D01*
X170518334Y-108707381D01*
X170280238Y-108707381D01*
X170185000Y-108659762D01*
X170137381Y-108612143D01*
X147991905Y-86863381D02*
X147991905Y-85863381D01*
X148372858Y-85863381D01*
X148468096Y-85911000D01*
X148515715Y-85958619D01*
X148563334Y-86053857D01*
X148563334Y-86196714D01*
X148515715Y-86291952D01*
X148468096Y-86339571D01*
X148372858Y-86387190D01*
X147991905Y-86387190D01*
X149420477Y-86196714D02*
X149420477Y-86863381D01*
X149182381Y-85815762D02*
X148944286Y-86530048D01*
X149563334Y-86530048D01*
X124163381Y-88292095D02*
X123163381Y-88292095D01*
X123163381Y-87911142D01*
X123211000Y-87815904D01*
X123258619Y-87768285D01*
X123353857Y-87720666D01*
X123496714Y-87720666D01*
X123591952Y-87768285D01*
X123639571Y-87815904D01*
X123687190Y-87911142D01*
X123687190Y-88292095D01*
X123163381Y-86815904D02*
X123163381Y-87292095D01*
X123639571Y-87339714D01*
X123591952Y-87292095D01*
X123544333Y-87196857D01*
X123544333Y-86958761D01*
X123591952Y-86863523D01*
X123639571Y-86815904D01*
X123734810Y-86768285D01*
X123972905Y-86768285D01*
X124068143Y-86815904D01*
X124115762Y-86863523D01*
X124163381Y-86958761D01*
X124163381Y-87196857D01*
X124115762Y-87292095D01*
X124068143Y-87339714D01*
X128187762Y-89244619D02*
X128092524Y-89197000D01*
X127997286Y-89101762D01*
X127854429Y-88958905D01*
X127759190Y-88911286D01*
X127663952Y-88911286D01*
X127711571Y-89149381D02*
X127616333Y-89101762D01*
X127521095Y-89006524D01*
X127473476Y-88816048D01*
X127473476Y-88482714D01*
X127521095Y-88292238D01*
X127616333Y-88197000D01*
X127711571Y-88149381D01*
X127902048Y-88149381D01*
X127997286Y-88197000D01*
X128092524Y-88292238D01*
X128140143Y-88482714D01*
X128140143Y-88816048D01*
X128092524Y-89006524D01*
X127997286Y-89101762D01*
X127902048Y-89149381D01*
X127711571Y-89149381D01*
X129092524Y-89149381D02*
X128521095Y-89149381D01*
X128806809Y-89149381D02*
X128806809Y-88149381D01*
X128711571Y-88292238D01*
X128616333Y-88387476D01*
X128521095Y-88435095D01*
X132251762Y-86831619D02*
X132156524Y-86784000D01*
X132061286Y-86688762D01*
X131918429Y-86545905D01*
X131823190Y-86498286D01*
X131727952Y-86498286D01*
X131775571Y-86736381D02*
X131680333Y-86688762D01*
X131585095Y-86593524D01*
X131537476Y-86403048D01*
X131537476Y-86069714D01*
X131585095Y-85879238D01*
X131680333Y-85784000D01*
X131775571Y-85736381D01*
X131966048Y-85736381D01*
X132061286Y-85784000D01*
X132156524Y-85879238D01*
X132204143Y-86069714D01*
X132204143Y-86403048D01*
X132156524Y-86593524D01*
X132061286Y-86688762D01*
X131966048Y-86736381D01*
X131775571Y-86736381D01*
X132585095Y-85831619D02*
X132632714Y-85784000D01*
X132727952Y-85736381D01*
X132966048Y-85736381D01*
X133061286Y-85784000D01*
X133108905Y-85831619D01*
X133156524Y-85926857D01*
X133156524Y-86022095D01*
X133108905Y-86164952D01*
X132537476Y-86736381D01*
X133156524Y-86736381D01*
X174979334Y-120264381D02*
X174646000Y-119788190D01*
X174407905Y-120264381D02*
X174407905Y-119264381D01*
X174788858Y-119264381D01*
X174884096Y-119312000D01*
X174931715Y-119359619D01*
X174979334Y-119454857D01*
X174979334Y-119597714D01*
X174931715Y-119692952D01*
X174884096Y-119740571D01*
X174788858Y-119788190D01*
X174407905Y-119788190D01*
X175931715Y-120264381D02*
X175360286Y-120264381D01*
X175646000Y-120264381D02*
X175646000Y-119264381D01*
X175550762Y-119407238D01*
X175455524Y-119502476D01*
X175360286Y-119550095D01*
X136990381Y-122391666D02*
X136514190Y-122725000D01*
X136990381Y-122963095D02*
X135990381Y-122963095D01*
X135990381Y-122582142D01*
X136038000Y-122486904D01*
X136085619Y-122439285D01*
X136180857Y-122391666D01*
X136323714Y-122391666D01*
X136418952Y-122439285D01*
X136466571Y-122486904D01*
X136514190Y-122582142D01*
X136514190Y-122963095D01*
X136085619Y-122010714D02*
X136038000Y-121963095D01*
X135990381Y-121867857D01*
X135990381Y-121629761D01*
X136038000Y-121534523D01*
X136085619Y-121486904D01*
X136180857Y-121439285D01*
X136276095Y-121439285D01*
X136418952Y-121486904D01*
X136990381Y-122058333D01*
X136990381Y-121439285D01*
X174979334Y-118613381D02*
X174646000Y-118137190D01*
X174407905Y-118613381D02*
X174407905Y-117613381D01*
X174788858Y-117613381D01*
X174884096Y-117661000D01*
X174931715Y-117708619D01*
X174979334Y-117803857D01*
X174979334Y-117946714D01*
X174931715Y-118041952D01*
X174884096Y-118089571D01*
X174788858Y-118137190D01*
X174407905Y-118137190D01*
X175312667Y-117613381D02*
X175931715Y-117613381D01*
X175598381Y-117994333D01*
X175741239Y-117994333D01*
X175836477Y-118041952D01*
X175884096Y-118089571D01*
X175931715Y-118184810D01*
X175931715Y-118422905D01*
X175884096Y-118518143D01*
X175836477Y-118565762D01*
X175741239Y-118613381D01*
X175455524Y-118613381D01*
X175360286Y-118565762D01*
X175312667Y-118518143D01*
X139911381Y-118962666D02*
X139435190Y-119296000D01*
X139911381Y-119534095D02*
X138911381Y-119534095D01*
X138911381Y-119153142D01*
X138959000Y-119057904D01*
X139006619Y-119010285D01*
X139101857Y-118962666D01*
X139244714Y-118962666D01*
X139339952Y-119010285D01*
X139387571Y-119057904D01*
X139435190Y-119153142D01*
X139435190Y-119534095D01*
X139244714Y-118105523D02*
X139911381Y-118105523D01*
X138863762Y-118343619D02*
X139578048Y-118581714D01*
X139578048Y-117962666D01*
X134196381Y-92165666D02*
X133720190Y-92499000D01*
X134196381Y-92737095D02*
X133196381Y-92737095D01*
X133196381Y-92356142D01*
X133244000Y-92260904D01*
X133291619Y-92213285D01*
X133386857Y-92165666D01*
X133529714Y-92165666D01*
X133624952Y-92213285D01*
X133672571Y-92260904D01*
X133720190Y-92356142D01*
X133720190Y-92737095D01*
X133196381Y-91260904D02*
X133196381Y-91737095D01*
X133672571Y-91784714D01*
X133624952Y-91737095D01*
X133577333Y-91641857D01*
X133577333Y-91403761D01*
X133624952Y-91308523D01*
X133672571Y-91260904D01*
X133767810Y-91213285D01*
X134005905Y-91213285D01*
X134101143Y-91260904D01*
X134148762Y-91308523D01*
X134196381Y-91403761D01*
X134196381Y-91641857D01*
X134148762Y-91737095D01*
X134101143Y-91784714D01*
X134196381Y-90387666D02*
X133720190Y-90721000D01*
X134196381Y-90959095D02*
X133196381Y-90959095D01*
X133196381Y-90578142D01*
X133244000Y-90482904D01*
X133291619Y-90435285D01*
X133386857Y-90387666D01*
X133529714Y-90387666D01*
X133624952Y-90435285D01*
X133672571Y-90482904D01*
X133720190Y-90578142D01*
X133720190Y-90959095D01*
X133196381Y-89530523D02*
X133196381Y-89721000D01*
X133244000Y-89816238D01*
X133291619Y-89863857D01*
X133434476Y-89959095D01*
X133624952Y-90006714D01*
X134005905Y-90006714D01*
X134101143Y-89959095D01*
X134148762Y-89911476D01*
X134196381Y-89816238D01*
X134196381Y-89625761D01*
X134148762Y-89530523D01*
X134101143Y-89482904D01*
X134005905Y-89435285D01*
X133767810Y-89435285D01*
X133672571Y-89482904D01*
X133624952Y-89530523D01*
X133577333Y-89625761D01*
X133577333Y-89816238D01*
X133624952Y-89911476D01*
X133672571Y-89959095D01*
X133767810Y-90006714D01*
X155802334Y-122677381D02*
X155469000Y-122201190D01*
X155230905Y-122677381D02*
X155230905Y-121677381D01*
X155611858Y-121677381D01*
X155707096Y-121725000D01*
X155754715Y-121772619D01*
X155802334Y-121867857D01*
X155802334Y-122010714D01*
X155754715Y-122105952D01*
X155707096Y-122153571D01*
X155611858Y-122201190D01*
X155230905Y-122201190D01*
X156135667Y-121677381D02*
X156802334Y-121677381D01*
X156373762Y-122677381D01*
X145134334Y-101722381D02*
X144801000Y-101246190D01*
X144562905Y-101722381D02*
X144562905Y-100722381D01*
X144943858Y-100722381D01*
X145039096Y-100770000D01*
X145086715Y-100817619D01*
X145134334Y-100912857D01*
X145134334Y-101055714D01*
X145086715Y-101150952D01*
X145039096Y-101198571D01*
X144943858Y-101246190D01*
X144562905Y-101246190D01*
X145705762Y-101150952D02*
X145610524Y-101103333D01*
X145562905Y-101055714D01*
X145515286Y-100960476D01*
X145515286Y-100912857D01*
X145562905Y-100817619D01*
X145610524Y-100770000D01*
X145705762Y-100722381D01*
X145896239Y-100722381D01*
X145991477Y-100770000D01*
X146039096Y-100817619D01*
X146086715Y-100912857D01*
X146086715Y-100960476D01*
X146039096Y-101055714D01*
X145991477Y-101103333D01*
X145896239Y-101150952D01*
X145705762Y-101150952D01*
X145610524Y-101198571D01*
X145562905Y-101246190D01*
X145515286Y-101341429D01*
X145515286Y-101531905D01*
X145562905Y-101627143D01*
X145610524Y-101674762D01*
X145705762Y-101722381D01*
X145896239Y-101722381D01*
X145991477Y-101674762D01*
X146039096Y-101627143D01*
X146086715Y-101531905D01*
X146086715Y-101341429D01*
X146039096Y-101246190D01*
X145991477Y-101198571D01*
X145896239Y-101150952D01*
X127211381Y-115025666D02*
X126735190Y-115359000D01*
X127211381Y-115597095D02*
X126211381Y-115597095D01*
X126211381Y-115216142D01*
X126259000Y-115120904D01*
X126306619Y-115073285D01*
X126401857Y-115025666D01*
X126544714Y-115025666D01*
X126639952Y-115073285D01*
X126687571Y-115120904D01*
X126735190Y-115216142D01*
X126735190Y-115597095D01*
X127211381Y-114549476D02*
X127211381Y-114359000D01*
X127163762Y-114263761D01*
X127116143Y-114216142D01*
X126973286Y-114120904D01*
X126782810Y-114073285D01*
X126401857Y-114073285D01*
X126306619Y-114120904D01*
X126259000Y-114168523D01*
X126211381Y-114263761D01*
X126211381Y-114454238D01*
X126259000Y-114549476D01*
X126306619Y-114597095D01*
X126401857Y-114644714D01*
X126639952Y-114644714D01*
X126735190Y-114597095D01*
X126782810Y-114549476D01*
X126830429Y-114454238D01*
X126830429Y-114263761D01*
X126782810Y-114168523D01*
X126735190Y-114120904D01*
X126639952Y-114073285D01*
X173947381Y-108135857D02*
X173471190Y-108469191D01*
X173947381Y-108707286D02*
X172947381Y-108707286D01*
X172947381Y-108326333D01*
X172995000Y-108231095D01*
X173042619Y-108183476D01*
X173137857Y-108135857D01*
X173280714Y-108135857D01*
X173375952Y-108183476D01*
X173423571Y-108231095D01*
X173471190Y-108326333D01*
X173471190Y-108707286D01*
X173947381Y-107183476D02*
X173947381Y-107754905D01*
X173947381Y-107469191D02*
X172947381Y-107469191D01*
X173090238Y-107564429D01*
X173185476Y-107659667D01*
X173233095Y-107754905D01*
X172947381Y-106564429D02*
X172947381Y-106469190D01*
X172995000Y-106373952D01*
X173042619Y-106326333D01*
X173137857Y-106278714D01*
X173328333Y-106231095D01*
X173566429Y-106231095D01*
X173756905Y-106278714D01*
X173852143Y-106326333D01*
X173899762Y-106373952D01*
X173947381Y-106469190D01*
X173947381Y-106564429D01*
X173899762Y-106659667D01*
X173852143Y-106707286D01*
X173756905Y-106754905D01*
X173566429Y-106802524D01*
X173328333Y-106802524D01*
X173137857Y-106754905D01*
X173042619Y-106707286D01*
X172995000Y-106659667D01*
X172947381Y-106564429D01*
X175852381Y-108135857D02*
X175376190Y-108469191D01*
X175852381Y-108707286D02*
X174852381Y-108707286D01*
X174852381Y-108326333D01*
X174900000Y-108231095D01*
X174947619Y-108183476D01*
X175042857Y-108135857D01*
X175185714Y-108135857D01*
X175280952Y-108183476D01*
X175328571Y-108231095D01*
X175376190Y-108326333D01*
X175376190Y-108707286D01*
X175852381Y-107183476D02*
X175852381Y-107754905D01*
X175852381Y-107469191D02*
X174852381Y-107469191D01*
X174995238Y-107564429D01*
X175090476Y-107659667D01*
X175138095Y-107754905D01*
X175852381Y-106231095D02*
X175852381Y-106802524D01*
X175852381Y-106516810D02*
X174852381Y-106516810D01*
X174995238Y-106612048D01*
X175090476Y-106707286D01*
X175138095Y-106802524D01*
X177757381Y-108135857D02*
X177281190Y-108469191D01*
X177757381Y-108707286D02*
X176757381Y-108707286D01*
X176757381Y-108326333D01*
X176805000Y-108231095D01*
X176852619Y-108183476D01*
X176947857Y-108135857D01*
X177090714Y-108135857D01*
X177185952Y-108183476D01*
X177233571Y-108231095D01*
X177281190Y-108326333D01*
X177281190Y-108707286D01*
X177757381Y-107183476D02*
X177757381Y-107754905D01*
X177757381Y-107469191D02*
X176757381Y-107469191D01*
X176900238Y-107564429D01*
X176995476Y-107659667D01*
X177043095Y-107754905D01*
X176852619Y-106802524D02*
X176805000Y-106754905D01*
X176757381Y-106659667D01*
X176757381Y-106421571D01*
X176805000Y-106326333D01*
X176852619Y-106278714D01*
X176947857Y-106231095D01*
X177043095Y-106231095D01*
X177185952Y-106278714D01*
X177757381Y-106850143D01*
X177757381Y-106231095D01*
X175471381Y-116644857D02*
X174995190Y-116978191D01*
X175471381Y-117216286D02*
X174471381Y-117216286D01*
X174471381Y-116835333D01*
X174519000Y-116740095D01*
X174566619Y-116692476D01*
X174661857Y-116644857D01*
X174804714Y-116644857D01*
X174899952Y-116692476D01*
X174947571Y-116740095D01*
X174995190Y-116835333D01*
X174995190Y-117216286D01*
X175471381Y-115692476D02*
X175471381Y-116263905D01*
X175471381Y-115978191D02*
X174471381Y-115978191D01*
X174614238Y-116073429D01*
X174709476Y-116168667D01*
X174757095Y-116263905D01*
X174471381Y-115359143D02*
X174471381Y-114740095D01*
X174852333Y-115073429D01*
X174852333Y-114930571D01*
X174899952Y-114835333D01*
X174947571Y-114787714D01*
X175042810Y-114740095D01*
X175280905Y-114740095D01*
X175376143Y-114787714D01*
X175423762Y-114835333D01*
X175471381Y-114930571D01*
X175471381Y-115216286D01*
X175423762Y-115311524D01*
X175376143Y-115359143D01*
X176868381Y-116644857D02*
X176392190Y-116978191D01*
X176868381Y-117216286D02*
X175868381Y-117216286D01*
X175868381Y-116835333D01*
X175916000Y-116740095D01*
X175963619Y-116692476D01*
X176058857Y-116644857D01*
X176201714Y-116644857D01*
X176296952Y-116692476D01*
X176344571Y-116740095D01*
X176392190Y-116835333D01*
X176392190Y-117216286D01*
X176868381Y-115692476D02*
X176868381Y-116263905D01*
X176868381Y-115978191D02*
X175868381Y-115978191D01*
X176011238Y-116073429D01*
X176106476Y-116168667D01*
X176154095Y-116263905D01*
X176201714Y-114835333D02*
X176868381Y-114835333D01*
X175820762Y-115073429D02*
X176535048Y-115311524D01*
X176535048Y-114692476D01*
X178265381Y-116644857D02*
X177789190Y-116978191D01*
X178265381Y-117216286D02*
X177265381Y-117216286D01*
X177265381Y-116835333D01*
X177313000Y-116740095D01*
X177360619Y-116692476D01*
X177455857Y-116644857D01*
X177598714Y-116644857D01*
X177693952Y-116692476D01*
X177741571Y-116740095D01*
X177789190Y-116835333D01*
X177789190Y-117216286D01*
X178265381Y-115692476D02*
X178265381Y-116263905D01*
X178265381Y-115978191D02*
X177265381Y-115978191D01*
X177408238Y-116073429D01*
X177503476Y-116168667D01*
X177551095Y-116263905D01*
X177265381Y-114787714D02*
X177265381Y-115263905D01*
X177741571Y-115311524D01*
X177693952Y-115263905D01*
X177646333Y-115168667D01*
X177646333Y-114930571D01*
X177693952Y-114835333D01*
X177741571Y-114787714D01*
X177836810Y-114740095D01*
X178074905Y-114740095D01*
X178170143Y-114787714D01*
X178217762Y-114835333D01*
X178265381Y-114930571D01*
X178265381Y-115168667D01*
X178217762Y-115263905D01*
X178170143Y-115311524D01*
X123528381Y-97848857D02*
X123052190Y-98182191D01*
X123528381Y-98420286D02*
X122528381Y-98420286D01*
X122528381Y-98039333D01*
X122576000Y-97944095D01*
X122623619Y-97896476D01*
X122718857Y-97848857D01*
X122861714Y-97848857D01*
X122956952Y-97896476D01*
X123004571Y-97944095D01*
X123052190Y-98039333D01*
X123052190Y-98420286D01*
X123528381Y-96896476D02*
X123528381Y-97467905D01*
X123528381Y-97182191D02*
X122528381Y-97182191D01*
X122671238Y-97277429D01*
X122766476Y-97372667D01*
X122814095Y-97467905D01*
X122528381Y-96039333D02*
X122528381Y-96229810D01*
X122576000Y-96325048D01*
X122623619Y-96372667D01*
X122766476Y-96467905D01*
X122956952Y-96515524D01*
X123337905Y-96515524D01*
X123433143Y-96467905D01*
X123480762Y-96420286D01*
X123528381Y-96325048D01*
X123528381Y-96134571D01*
X123480762Y-96039333D01*
X123433143Y-95991714D01*
X123337905Y-95944095D01*
X123099810Y-95944095D01*
X123004571Y-95991714D01*
X122956952Y-96039333D01*
X122909333Y-96134571D01*
X122909333Y-96325048D01*
X122956952Y-96420286D01*
X123004571Y-96467905D01*
X123099810Y-96515524D01*
X129037143Y-99817381D02*
X128703809Y-99341190D01*
X128465714Y-99817381D02*
X128465714Y-98817381D01*
X128846667Y-98817381D01*
X128941905Y-98865000D01*
X128989524Y-98912619D01*
X129037143Y-99007857D01*
X129037143Y-99150714D01*
X128989524Y-99245952D01*
X128941905Y-99293571D01*
X128846667Y-99341190D01*
X128465714Y-99341190D01*
X129989524Y-99817381D02*
X129418095Y-99817381D01*
X129703809Y-99817381D02*
X129703809Y-98817381D01*
X129608571Y-98960238D01*
X129513333Y-99055476D01*
X129418095Y-99103095D01*
X130322857Y-98817381D02*
X130989524Y-98817381D01*
X130560952Y-99817381D01*
X122639381Y-111437857D02*
X122163190Y-111771191D01*
X122639381Y-112009286D02*
X121639381Y-112009286D01*
X121639381Y-111628333D01*
X121687000Y-111533095D01*
X121734619Y-111485476D01*
X121829857Y-111437857D01*
X121972714Y-111437857D01*
X122067952Y-111485476D01*
X122115571Y-111533095D01*
X122163190Y-111628333D01*
X122163190Y-112009286D01*
X122639381Y-110485476D02*
X122639381Y-111056905D01*
X122639381Y-110771191D02*
X121639381Y-110771191D01*
X121782238Y-110866429D01*
X121877476Y-110961667D01*
X121925095Y-111056905D01*
X122067952Y-109914048D02*
X122020333Y-110009286D01*
X121972714Y-110056905D01*
X121877476Y-110104524D01*
X121829857Y-110104524D01*
X121734619Y-110056905D01*
X121687000Y-110009286D01*
X121639381Y-109914048D01*
X121639381Y-109723571D01*
X121687000Y-109628333D01*
X121734619Y-109580714D01*
X121829857Y-109533095D01*
X121877476Y-109533095D01*
X121972714Y-109580714D01*
X122020333Y-109628333D01*
X122067952Y-109723571D01*
X122067952Y-109914048D01*
X122115571Y-110009286D01*
X122163190Y-110056905D01*
X122258429Y-110104524D01*
X122448905Y-110104524D01*
X122544143Y-110056905D01*
X122591762Y-110009286D01*
X122639381Y-109914048D01*
X122639381Y-109723571D01*
X122591762Y-109628333D01*
X122544143Y-109580714D01*
X122448905Y-109533095D01*
X122258429Y-109533095D01*
X122163190Y-109580714D01*
X122115571Y-109628333D01*
X122067952Y-109723571D01*
X131577143Y-101595381D02*
X131243809Y-101119190D01*
X131005714Y-101595381D02*
X131005714Y-100595381D01*
X131386667Y-100595381D01*
X131481905Y-100643000D01*
X131529524Y-100690619D01*
X131577143Y-100785857D01*
X131577143Y-100928714D01*
X131529524Y-101023952D01*
X131481905Y-101071571D01*
X131386667Y-101119190D01*
X131005714Y-101119190D01*
X132529524Y-101595381D02*
X131958095Y-101595381D01*
X132243809Y-101595381D02*
X132243809Y-100595381D01*
X132148571Y-100738238D01*
X132053333Y-100833476D01*
X131958095Y-100881095D01*
X133005714Y-101595381D02*
X133196190Y-101595381D01*
X133291429Y-101547762D01*
X133339048Y-101500143D01*
X133434286Y-101357286D01*
X133481905Y-101166810D01*
X133481905Y-100785857D01*
X133434286Y-100690619D01*
X133386667Y-100643000D01*
X133291429Y-100595381D01*
X133100952Y-100595381D01*
X133005714Y-100643000D01*
X132958095Y-100690619D01*
X132910476Y-100785857D01*
X132910476Y-101023952D01*
X132958095Y-101119190D01*
X133005714Y-101166810D01*
X133100952Y-101214429D01*
X133291429Y-101214429D01*
X133386667Y-101166810D01*
X133434286Y-101119190D01*
X133481905Y-101023952D01*
X122687143Y-113279381D02*
X122353809Y-112803190D01*
X122115714Y-113279381D02*
X122115714Y-112279381D01*
X122496667Y-112279381D01*
X122591905Y-112327000D01*
X122639524Y-112374619D01*
X122687143Y-112469857D01*
X122687143Y-112612714D01*
X122639524Y-112707952D01*
X122591905Y-112755571D01*
X122496667Y-112803190D01*
X122115714Y-112803190D01*
X123068095Y-112374619D02*
X123115714Y-112327000D01*
X123210952Y-112279381D01*
X123449048Y-112279381D01*
X123544286Y-112327000D01*
X123591905Y-112374619D01*
X123639524Y-112469857D01*
X123639524Y-112565095D01*
X123591905Y-112707952D01*
X123020476Y-113279381D01*
X123639524Y-113279381D01*
X124258571Y-112279381D02*
X124353810Y-112279381D01*
X124449048Y-112327000D01*
X124496667Y-112374619D01*
X124544286Y-112469857D01*
X124591905Y-112660333D01*
X124591905Y-112898429D01*
X124544286Y-113088905D01*
X124496667Y-113184143D01*
X124449048Y-113231762D01*
X124353810Y-113279381D01*
X124258571Y-113279381D01*
X124163333Y-113231762D01*
X124115714Y-113184143D01*
X124068095Y-113088905D01*
X124020476Y-112898429D01*
X124020476Y-112660333D01*
X124068095Y-112469857D01*
X124115714Y-112374619D01*
X124163333Y-112327000D01*
X124258571Y-112279381D01*
X165311381Y-111691857D02*
X164835190Y-112025191D01*
X165311381Y-112263286D02*
X164311381Y-112263286D01*
X164311381Y-111882333D01*
X164359000Y-111787095D01*
X164406619Y-111739476D01*
X164501857Y-111691857D01*
X164644714Y-111691857D01*
X164739952Y-111739476D01*
X164787571Y-111787095D01*
X164835190Y-111882333D01*
X164835190Y-112263286D01*
X164406619Y-111310905D02*
X164359000Y-111263286D01*
X164311381Y-111168048D01*
X164311381Y-110929952D01*
X164359000Y-110834714D01*
X164406619Y-110787095D01*
X164501857Y-110739476D01*
X164597095Y-110739476D01*
X164739952Y-110787095D01*
X165311381Y-111358524D01*
X165311381Y-110739476D01*
X165311381Y-109787095D02*
X165311381Y-110358524D01*
X165311381Y-110072810D02*
X164311381Y-110072810D01*
X164454238Y-110168048D01*
X164549476Y-110263286D01*
X164597095Y-110358524D01*
X167089381Y-111691857D02*
X166613190Y-112025191D01*
X167089381Y-112263286D02*
X166089381Y-112263286D01*
X166089381Y-111882333D01*
X166137000Y-111787095D01*
X166184619Y-111739476D01*
X166279857Y-111691857D01*
X166422714Y-111691857D01*
X166517952Y-111739476D01*
X166565571Y-111787095D01*
X166613190Y-111882333D01*
X166613190Y-112263286D01*
X166184619Y-111310905D02*
X166137000Y-111263286D01*
X166089381Y-111168048D01*
X166089381Y-110929952D01*
X166137000Y-110834714D01*
X166184619Y-110787095D01*
X166279857Y-110739476D01*
X166375095Y-110739476D01*
X166517952Y-110787095D01*
X167089381Y-111358524D01*
X167089381Y-110739476D01*
X166184619Y-110358524D02*
X166137000Y-110310905D01*
X166089381Y-110215667D01*
X166089381Y-109977571D01*
X166137000Y-109882333D01*
X166184619Y-109834714D01*
X166279857Y-109787095D01*
X166375095Y-109787095D01*
X166517952Y-109834714D01*
X167089381Y-110406143D01*
X167089381Y-109787095D01*
X118821667Y-120089762D02*
X118964524Y-120137381D01*
X119202620Y-120137381D01*
X119297858Y-120089762D01*
X119345477Y-120042143D01*
X119393096Y-119946905D01*
X119393096Y-119851667D01*
X119345477Y-119756429D01*
X119297858Y-119708810D01*
X119202620Y-119661190D01*
X119012143Y-119613571D01*
X118916905Y-119565952D01*
X118869286Y-119518333D01*
X118821667Y-119423095D01*
X118821667Y-119327857D01*
X118869286Y-119232619D01*
X118916905Y-119185000D01*
X119012143Y-119137381D01*
X119250239Y-119137381D01*
X119393096Y-119185000D01*
X119726429Y-119137381D02*
X119964524Y-120137381D01*
X120155001Y-119423095D01*
X120345477Y-120137381D01*
X120583572Y-119137381D01*
X121488334Y-120137381D02*
X120916905Y-120137381D01*
X121202619Y-120137381D02*
X121202619Y-119137381D01*
X121107381Y-119280238D01*
X121012143Y-119375476D01*
X120916905Y-119423095D01*
X153587809Y-119661190D02*
X153587809Y-120137381D01*
X153254476Y-119137381D02*
X153587809Y-119661190D01*
X153921143Y-119137381D01*
X154778286Y-120137381D02*
X154206857Y-120137381D01*
X154492571Y-120137381D02*
X154492571Y-119137381D01*
X154397333Y-119280238D01*
X154302095Y-119375476D01*
X154206857Y-119423095D01*
X128259190Y-109874191D02*
X128735381Y-109874191D01*
X127735381Y-110207524D02*
X128259190Y-109874191D01*
X127735381Y-109540857D01*
X127830619Y-109255143D02*
X127783000Y-109207524D01*
X127735381Y-109112286D01*
X127735381Y-108874190D01*
X127783000Y-108778952D01*
X127830619Y-108731333D01*
X127925857Y-108683714D01*
X128021095Y-108683714D01*
X128163952Y-108731333D01*
X128735381Y-109302762D01*
X128735381Y-108683714D01*
X124290381Y-73687095D02*
X123290381Y-73687095D01*
X123290381Y-73306142D01*
X123338000Y-73210904D01*
X123385619Y-73163285D01*
X123480857Y-73115666D01*
X123623714Y-73115666D01*
X123718952Y-73163285D01*
X123766571Y-73210904D01*
X123814190Y-73306142D01*
X123814190Y-73687095D01*
X124290381Y-72163285D02*
X124290381Y-72734714D01*
X124290381Y-72449000D02*
X123290381Y-72449000D01*
X123433238Y-72544238D01*
X123528476Y-72639476D01*
X123576095Y-72734714D01*
X117892905Y-87498381D02*
X117892905Y-86498381D01*
X118273858Y-86498381D01*
X118369096Y-86546000D01*
X118416715Y-86593619D01*
X118464334Y-86688857D01*
X118464334Y-86831714D01*
X118416715Y-86926952D01*
X118369096Y-86974571D01*
X118273858Y-87022190D01*
X117892905Y-87022190D01*
X118797667Y-86498381D02*
X119416715Y-86498381D01*
X119083381Y-86879333D01*
X119226239Y-86879333D01*
X119321477Y-86926952D01*
X119369096Y-86974571D01*
X119416715Y-87069810D01*
X119416715Y-87307905D01*
X119369096Y-87403143D01*
X119321477Y-87450762D01*
X119226239Y-87498381D01*
X118940524Y-87498381D01*
X118845286Y-87450762D01*
X118797667Y-87403143D01*
X118527953Y-119915143D02*
X118480334Y-119962762D01*
X118337477Y-120010381D01*
X118242239Y-120010381D01*
X118099381Y-119962762D01*
X118004143Y-119867524D01*
X117956524Y-119772286D01*
X117908905Y-119581810D01*
X117908905Y-119438952D01*
X117956524Y-119248476D01*
X118004143Y-119153238D01*
X118099381Y-119058000D01*
X118242239Y-119010381D01*
X118337477Y-119010381D01*
X118480334Y-119058000D01*
X118527953Y-119105619D01*
X118908905Y-119724667D02*
X119385096Y-119724667D01*
X118813667Y-120010381D02*
X119147000Y-119010381D01*
X119480334Y-120010381D01*
X119813667Y-120010381D02*
X119813667Y-119010381D01*
X120385096Y-120010381D01*
X120385096Y-119010381D01*
X120813667Y-119105619D02*
X120861286Y-119058000D01*
X120956524Y-119010381D01*
X121194620Y-119010381D01*
X121289858Y-119058000D01*
X121337477Y-119105619D01*
X121385096Y-119200857D01*
X121385096Y-119296095D01*
X121337477Y-119438952D01*
X120766048Y-120010381D01*
X121385096Y-120010381D01*
X126703381Y-127916095D02*
X125703381Y-127916095D01*
X125703381Y-127535142D01*
X125751000Y-127439904D01*
X125798619Y-127392285D01*
X125893857Y-127344666D01*
X126036714Y-127344666D01*
X126131952Y-127392285D01*
X126179571Y-127439904D01*
X126227190Y-127535142D01*
X126227190Y-127916095D01*
X125798619Y-126963714D02*
X125751000Y-126916095D01*
X125703381Y-126820857D01*
X125703381Y-126582761D01*
X125751000Y-126487523D01*
X125798619Y-126439904D01*
X125893857Y-126392285D01*
X125989095Y-126392285D01*
X126131952Y-126439904D01*
X126703381Y-127011333D01*
X126703381Y-126392285D01*
X159120143Y-127154047D02*
X159167762Y-127201666D01*
X159215381Y-127344523D01*
X159215381Y-127439761D01*
X159167762Y-127582619D01*
X159072524Y-127677857D01*
X158977286Y-127725476D01*
X158786810Y-127773095D01*
X158643952Y-127773095D01*
X158453476Y-127725476D01*
X158358238Y-127677857D01*
X158263000Y-127582619D01*
X158215381Y-127439761D01*
X158215381Y-127344523D01*
X158263000Y-127201666D01*
X158310619Y-127154047D01*
X158929667Y-126773095D02*
X158929667Y-126296904D01*
X159215381Y-126868333D02*
X158215381Y-126535000D01*
X159215381Y-126201666D01*
X159215381Y-125868333D02*
X158215381Y-125868333D01*
X159215381Y-125296904D01*
X158215381Y-125296904D01*
X159215381Y-124296904D02*
X159215381Y-124868333D01*
X159215381Y-124582619D02*
X158215381Y-124582619D01*
X158358238Y-124677857D01*
X158453476Y-124773095D01*
X158501095Y-124868333D01*
X152151143Y-86641143D02*
X152103524Y-86688762D01*
X151960667Y-86736381D01*
X151865429Y-86736381D01*
X151722571Y-86688762D01*
X151627333Y-86593524D01*
X151579714Y-86498286D01*
X151532095Y-86307810D01*
X151532095Y-86164952D01*
X151579714Y-85974476D01*
X151627333Y-85879238D01*
X151722571Y-85784000D01*
X151865429Y-85736381D01*
X151960667Y-85736381D01*
X152103524Y-85784000D01*
X152151143Y-85831619D01*
X153103524Y-86736381D02*
X152532095Y-86736381D01*
X152817809Y-86736381D02*
X152817809Y-85736381D01*
X152722571Y-85879238D01*
X152627333Y-85974476D01*
X152532095Y-86022095D01*
X154055905Y-86736381D02*
X153484476Y-86736381D01*
X153770190Y-86736381D02*
X153770190Y-85736381D01*
X153674952Y-85879238D01*
X153579714Y-85974476D01*
X153484476Y-86022095D01*
X162771381Y-84132857D02*
X162295190Y-84466191D01*
X162771381Y-84704286D02*
X161771381Y-84704286D01*
X161771381Y-84323333D01*
X161819000Y-84228095D01*
X161866619Y-84180476D01*
X161961857Y-84132857D01*
X162104714Y-84132857D01*
X162199952Y-84180476D01*
X162247571Y-84228095D01*
X162295190Y-84323333D01*
X162295190Y-84704286D01*
X161866619Y-83751905D02*
X161819000Y-83704286D01*
X161771381Y-83609048D01*
X161771381Y-83370952D01*
X161819000Y-83275714D01*
X161866619Y-83228095D01*
X161961857Y-83180476D01*
X162057095Y-83180476D01*
X162199952Y-83228095D01*
X162771381Y-83799524D01*
X162771381Y-83180476D01*
X161771381Y-82847143D02*
X161771381Y-82228095D01*
X162152333Y-82561429D01*
X162152333Y-82418571D01*
X162199952Y-82323333D01*
X162247571Y-82275714D01*
X162342810Y-82228095D01*
X162580905Y-82228095D01*
X162676143Y-82275714D01*
X162723762Y-82323333D01*
X162771381Y-82418571D01*
X162771381Y-82704286D01*
X162723762Y-82799524D01*
X162676143Y-82847143D01*
X153040143Y-81402381D02*
X152706809Y-80926190D01*
X152468714Y-81402381D02*
X152468714Y-80402381D01*
X152849667Y-80402381D01*
X152944905Y-80450000D01*
X152992524Y-80497619D01*
X153040143Y-80592857D01*
X153040143Y-80735714D01*
X152992524Y-80830952D01*
X152944905Y-80878571D01*
X152849667Y-80926190D01*
X152468714Y-80926190D01*
X153421095Y-80497619D02*
X153468714Y-80450000D01*
X153563952Y-80402381D01*
X153802048Y-80402381D01*
X153897286Y-80450000D01*
X153944905Y-80497619D01*
X153992524Y-80592857D01*
X153992524Y-80688095D01*
X153944905Y-80830952D01*
X153373476Y-81402381D01*
X153992524Y-81402381D01*
X154849667Y-80735714D02*
X154849667Y-81402381D01*
X154611571Y-80354762D02*
X154373476Y-81069048D01*
X154992524Y-81069048D01*
X161549143Y-81402381D02*
X161215809Y-80926190D01*
X160977714Y-81402381D02*
X160977714Y-80402381D01*
X161358667Y-80402381D01*
X161453905Y-80450000D01*
X161501524Y-80497619D01*
X161549143Y-80592857D01*
X161549143Y-80735714D01*
X161501524Y-80830952D01*
X161453905Y-80878571D01*
X161358667Y-80926190D01*
X160977714Y-80926190D01*
X161930095Y-80497619D02*
X161977714Y-80450000D01*
X162072952Y-80402381D01*
X162311048Y-80402381D01*
X162406286Y-80450000D01*
X162453905Y-80497619D01*
X162501524Y-80592857D01*
X162501524Y-80688095D01*
X162453905Y-80830952D01*
X161882476Y-81402381D01*
X162501524Y-81402381D01*
X163406286Y-80402381D02*
X162930095Y-80402381D01*
X162882476Y-80878571D01*
X162930095Y-80830952D01*
X163025333Y-80783333D01*
X163263429Y-80783333D01*
X163358667Y-80830952D01*
X163406286Y-80878571D01*
X163453905Y-80973810D01*
X163453905Y-81211905D01*
X163406286Y-81307143D01*
X163358667Y-81354762D01*
X163263429Y-81402381D01*
X163025333Y-81402381D01*
X162930095Y-81354762D01*
X162882476Y-81307143D01*
X160866381Y-89673190D02*
X159866381Y-89673190D01*
X160771143Y-88625571D02*
X160818762Y-88673190D01*
X160866381Y-88816047D01*
X160866381Y-88911285D01*
X160818762Y-89054143D01*
X160723524Y-89149381D01*
X160628286Y-89197000D01*
X160437810Y-89244619D01*
X160294952Y-89244619D01*
X160104476Y-89197000D01*
X160009238Y-89149381D01*
X159914000Y-89054143D01*
X159866381Y-88911285D01*
X159866381Y-88816047D01*
X159914000Y-88673190D01*
X159961619Y-88625571D01*
X159866381Y-88292238D02*
X159866381Y-87625571D01*
X160866381Y-88054143D01*
X164041381Y-126773095D02*
X163041381Y-126773095D01*
X163041381Y-126392142D01*
X163089000Y-126296904D01*
X163136619Y-126249285D01*
X163231857Y-126201666D01*
X163374714Y-126201666D01*
X163469952Y-126249285D01*
X163517571Y-126296904D01*
X163565190Y-126392142D01*
X163565190Y-126773095D01*
X163041381Y-125344523D02*
X163041381Y-125535000D01*
X163089000Y-125630238D01*
X163136619Y-125677857D01*
X163279476Y-125773095D01*
X163469952Y-125820714D01*
X163850905Y-125820714D01*
X163946143Y-125773095D01*
X163993762Y-125725476D01*
X164041381Y-125630238D01*
X164041381Y-125439761D01*
X163993762Y-125344523D01*
X163946143Y-125296904D01*
X163850905Y-125249285D01*
X163612810Y-125249285D01*
X163517571Y-125296904D01*
X163469952Y-125344523D01*
X163422333Y-125439761D01*
X163422333Y-125630238D01*
X163469952Y-125725476D01*
X163517571Y-125773095D01*
X163612810Y-125820714D01*
X167978381Y-118502190D02*
X166978381Y-118502190D01*
X167883143Y-117454571D02*
X167930762Y-117502190D01*
X167978381Y-117645047D01*
X167978381Y-117740285D01*
X167930762Y-117883143D01*
X167835524Y-117978381D01*
X167740286Y-118026000D01*
X167549810Y-118073619D01*
X167406952Y-118073619D01*
X167216476Y-118026000D01*
X167121238Y-117978381D01*
X167026000Y-117883143D01*
X166978381Y-117740285D01*
X166978381Y-117645047D01*
X167026000Y-117502190D01*
X167073619Y-117454571D01*
X166978381Y-116597428D02*
X166978381Y-116787905D01*
X167026000Y-116883143D01*
X167073619Y-116930762D01*
X167216476Y-117026000D01*
X167406952Y-117073619D01*
X167787905Y-117073619D01*
X167883143Y-117026000D01*
X167930762Y-116978381D01*
X167978381Y-116883143D01*
X167978381Y-116692666D01*
X167930762Y-116597428D01*
X167883143Y-116549809D01*
X167787905Y-116502190D01*
X167549810Y-116502190D01*
X167454571Y-116549809D01*
X167406952Y-116597428D01*
X167359333Y-116692666D01*
X167359333Y-116883143D01*
X167406952Y-116978381D01*
X167454571Y-117026000D01*
X167549810Y-117073619D01*
X161771381Y-87117333D02*
X162485667Y-87117333D01*
X162628524Y-87164953D01*
X162723762Y-87260191D01*
X162771381Y-87403048D01*
X162771381Y-87498286D01*
X162771381Y-86641143D02*
X161771381Y-86641143D01*
X161771381Y-86260190D01*
X161819000Y-86164952D01*
X161866619Y-86117333D01*
X161961857Y-86069714D01*
X162104714Y-86069714D01*
X162199952Y-86117333D01*
X162247571Y-86164952D01*
X162295190Y-86260190D01*
X162295190Y-86641143D01*
X162771381Y-85117333D02*
X162771381Y-85688762D01*
X162771381Y-85403048D02*
X161771381Y-85403048D01*
X161914238Y-85498286D01*
X162009476Y-85593524D01*
X162057095Y-85688762D01*
X135117143Y-98737857D02*
X135164762Y-98785476D01*
X135212381Y-98928333D01*
X135212381Y-99023571D01*
X135164762Y-99166429D01*
X135069524Y-99261667D01*
X134974286Y-99309286D01*
X134783810Y-99356905D01*
X134640952Y-99356905D01*
X134450476Y-99309286D01*
X134355238Y-99261667D01*
X134260000Y-99166429D01*
X134212381Y-99023571D01*
X134212381Y-98928333D01*
X134260000Y-98785476D01*
X134307619Y-98737857D01*
X135212381Y-97785476D02*
X135212381Y-98356905D01*
X135212381Y-98071191D02*
X134212381Y-98071191D01*
X134355238Y-98166429D01*
X134450476Y-98261667D01*
X134498095Y-98356905D01*
X134307619Y-97404524D02*
X134260000Y-97356905D01*
X134212381Y-97261667D01*
X134212381Y-97023571D01*
X134260000Y-96928333D01*
X134307619Y-96880714D01*
X134402857Y-96833095D01*
X134498095Y-96833095D01*
X134640952Y-96880714D01*
X135212381Y-97452143D01*
X135212381Y-96833095D01*
X144007143Y-98737857D02*
X144054762Y-98785476D01*
X144102381Y-98928333D01*
X144102381Y-99023571D01*
X144054762Y-99166429D01*
X143959524Y-99261667D01*
X143864286Y-99309286D01*
X143673810Y-99356905D01*
X143530952Y-99356905D01*
X143340476Y-99309286D01*
X143245238Y-99261667D01*
X143150000Y-99166429D01*
X143102381Y-99023571D01*
X143102381Y-98928333D01*
X143150000Y-98785476D01*
X143197619Y-98737857D01*
X144102381Y-97785476D02*
X144102381Y-98356905D01*
X144102381Y-98071191D02*
X143102381Y-98071191D01*
X143245238Y-98166429D01*
X143340476Y-98261667D01*
X143388095Y-98356905D01*
X143102381Y-97452143D02*
X143102381Y-96833095D01*
X143483333Y-97166429D01*
X143483333Y-97023571D01*
X143530952Y-96928333D01*
X143578571Y-96880714D01*
X143673810Y-96833095D01*
X143911905Y-96833095D01*
X144007143Y-96880714D01*
X144054762Y-96928333D01*
X144102381Y-97023571D01*
X144102381Y-97309286D01*
X144054762Y-97404524D01*
X144007143Y-97452143D01*
X133434381Y-82815190D02*
X132434381Y-82815190D01*
X133339143Y-81767571D02*
X133386762Y-81815190D01*
X133434381Y-81958047D01*
X133434381Y-82053285D01*
X133386762Y-82196143D01*
X133291524Y-82291381D01*
X133196286Y-82339000D01*
X133005810Y-82386619D01*
X132862952Y-82386619D01*
X132672476Y-82339000D01*
X132577238Y-82291381D01*
X132482000Y-82196143D01*
X132434381Y-82053285D01*
X132434381Y-81958047D01*
X132482000Y-81815190D01*
X132529619Y-81767571D01*
X132862952Y-81196143D02*
X132815333Y-81291381D01*
X132767714Y-81339000D01*
X132672476Y-81386619D01*
X132624857Y-81386619D01*
X132529619Y-81339000D01*
X132482000Y-81291381D01*
X132434381Y-81196143D01*
X132434381Y-81005666D01*
X132482000Y-80910428D01*
X132529619Y-80862809D01*
X132624857Y-80815190D01*
X132672476Y-80815190D01*
X132767714Y-80862809D01*
X132815333Y-80910428D01*
X132862952Y-81005666D01*
X132862952Y-81196143D01*
X132910571Y-81291381D01*
X132958190Y-81339000D01*
X133053429Y-81386619D01*
X133243905Y-81386619D01*
X133339143Y-81339000D01*
X133386762Y-81291381D01*
X133434381Y-81196143D01*
X133434381Y-81005666D01*
X133386762Y-80910428D01*
X133339143Y-80862809D01*
X133243905Y-80815190D01*
X133053429Y-80815190D01*
X132958190Y-80862809D01*
X132910571Y-80910428D01*
X132862952Y-81005666D01*
X132124762Y-99912619D02*
X132029524Y-99865000D01*
X131934286Y-99769762D01*
X131791429Y-99626905D01*
X131696190Y-99579286D01*
X131600952Y-99579286D01*
X131648571Y-99817381D02*
X131553333Y-99769762D01*
X131458095Y-99674524D01*
X131410476Y-99484048D01*
X131410476Y-99150714D01*
X131458095Y-98960238D01*
X131553333Y-98865000D01*
X131648571Y-98817381D01*
X131839048Y-98817381D01*
X131934286Y-98865000D01*
X132029524Y-98960238D01*
X132077143Y-99150714D01*
X132077143Y-99484048D01*
X132029524Y-99674524D01*
X131934286Y-99769762D01*
X131839048Y-99817381D01*
X131648571Y-99817381D01*
X132410476Y-98817381D02*
X133029524Y-98817381D01*
X132696190Y-99198333D01*
X132839048Y-99198333D01*
X132934286Y-99245952D01*
X132981905Y-99293571D01*
X133029524Y-99388810D01*
X133029524Y-99626905D01*
X132981905Y-99722143D01*
X132934286Y-99769762D01*
X132839048Y-99817381D01*
X132553333Y-99817381D01*
X132458095Y-99769762D01*
X132410476Y-99722143D01*
X125401619Y-96793238D02*
X125354000Y-96888476D01*
X125258762Y-96983714D01*
X125115905Y-97126571D01*
X125068286Y-97221810D01*
X125068286Y-97317048D01*
X125306381Y-97269429D02*
X125258762Y-97364667D01*
X125163524Y-97459905D01*
X124973048Y-97507524D01*
X124639714Y-97507524D01*
X124449238Y-97459905D01*
X124354000Y-97364667D01*
X124306381Y-97269429D01*
X124306381Y-97078952D01*
X124354000Y-96983714D01*
X124449238Y-96888476D01*
X124639714Y-96840857D01*
X124973048Y-96840857D01*
X125163524Y-96888476D01*
X125258762Y-96983714D01*
X125306381Y-97078952D01*
X125306381Y-97269429D01*
X124639714Y-95983714D02*
X125306381Y-95983714D01*
X124258762Y-96221810D02*
X124973048Y-96459905D01*
X124973048Y-95840857D01*
X133688381Y-96959857D02*
X133212190Y-97293191D01*
X133688381Y-97531286D02*
X132688381Y-97531286D01*
X132688381Y-97150333D01*
X132736000Y-97055095D01*
X132783619Y-97007476D01*
X132878857Y-96959857D01*
X133021714Y-96959857D01*
X133116952Y-97007476D01*
X133164571Y-97055095D01*
X133212190Y-97150333D01*
X133212190Y-97531286D01*
X132783619Y-96578905D02*
X132736000Y-96531286D01*
X132688381Y-96436048D01*
X132688381Y-96197952D01*
X132736000Y-96102714D01*
X132783619Y-96055095D01*
X132878857Y-96007476D01*
X132974095Y-96007476D01*
X133116952Y-96055095D01*
X133688381Y-96626524D01*
X133688381Y-96007476D01*
X132688381Y-95150333D02*
X132688381Y-95340810D01*
X132736000Y-95436048D01*
X132783619Y-95483667D01*
X132926476Y-95578905D01*
X133116952Y-95626524D01*
X133497905Y-95626524D01*
X133593143Y-95578905D01*
X133640762Y-95531286D01*
X133688381Y-95436048D01*
X133688381Y-95245571D01*
X133640762Y-95150333D01*
X133593143Y-95102714D01*
X133497905Y-95055095D01*
X133259810Y-95055095D01*
X133164571Y-95102714D01*
X133116952Y-95150333D01*
X133069333Y-95245571D01*
X133069333Y-95436048D01*
X133116952Y-95531286D01*
X133164571Y-95578905D01*
X133259810Y-95626524D01*
X125608143Y-95118381D02*
X125274809Y-94642190D01*
X125036714Y-95118381D02*
X125036714Y-94118381D01*
X125417667Y-94118381D01*
X125512905Y-94166000D01*
X125560524Y-94213619D01*
X125608143Y-94308857D01*
X125608143Y-94451714D01*
X125560524Y-94546952D01*
X125512905Y-94594571D01*
X125417667Y-94642190D01*
X125036714Y-94642190D01*
X125989095Y-94213619D02*
X126036714Y-94166000D01*
X126131952Y-94118381D01*
X126370048Y-94118381D01*
X126465286Y-94166000D01*
X126512905Y-94213619D01*
X126560524Y-94308857D01*
X126560524Y-94404095D01*
X126512905Y-94546952D01*
X125941476Y-95118381D01*
X126560524Y-95118381D01*
X126893857Y-94118381D02*
X127560524Y-94118381D01*
X127131952Y-95118381D01*
X126528905Y-124074381D02*
X126528905Y-123074381D01*
X126767000Y-123074381D01*
X126909858Y-123122000D01*
X127005096Y-123217238D01*
X127052715Y-123312476D01*
X127100334Y-123502952D01*
X127100334Y-123645810D01*
X127052715Y-123836286D01*
X127005096Y-123931524D01*
X126909858Y-124026762D01*
X126767000Y-124074381D01*
X126528905Y-124074381D01*
X128052715Y-124074381D02*
X127481286Y-124074381D01*
X127767000Y-124074381D02*
X127767000Y-123074381D01*
X127671762Y-123217238D01*
X127576524Y-123312476D01*
X127481286Y-123360095D01*
X151420905Y-124328381D02*
X151420905Y-123328381D01*
X151659000Y-123328381D01*
X151801858Y-123376000D01*
X151897096Y-123471238D01*
X151944715Y-123566476D01*
X151992334Y-123756952D01*
X151992334Y-123899810D01*
X151944715Y-124090286D01*
X151897096Y-124185524D01*
X151801858Y-124280762D01*
X151659000Y-124328381D01*
X151420905Y-124328381D01*
X152373286Y-123423619D02*
X152420905Y-123376000D01*
X152516143Y-123328381D01*
X152754239Y-123328381D01*
X152849477Y-123376000D01*
X152897096Y-123423619D01*
X152944715Y-123518857D01*
X152944715Y-123614095D01*
X152897096Y-123756952D01*
X152325667Y-124328381D01*
X152944715Y-124328381D01*
M02*
